%TF.GenerationSoftware,KiCad,Pcbnew,7.0.11+dfsg-1build4*%
%TF.CreationDate,2026-10-02T04:18:51+00:00*%
%TF.ProjectId,hijet_starter,68696a65-745f-4737-9461-727465722e6b,rev?*%
%TF.SameCoordinates,Original*%
%TF.FileFunction,Drillmap*%
%TF.FilePolarity,Positive*%
%FSLAX45Y45*%
G04 Gerber Fmt 4.5, Leading zero omitted, Abs format (unit mm)*
G04 Created by KiCad (PCBNEW 7.0.11+dfsg-1build4) date 2026-10-02 04:18:51*
%MOMM*%
%LPD*%
G01*
G04 APERTURE LIST*
%ADD10C,0.100000*%
%ADD11C,0.200000*%
%ADD12C,0.320000*%
G04 APERTURE END LIST*
D10*
X0Y0D02*
X10000000Y0D01*
X0Y-8200000D02*
X0Y0D01*
X10000000Y0D02*
X10000000Y-8200000D01*
X10000000Y-8200000D02*
X0Y-8200000D01*
D11*
D12*
X190000Y-190000D02*
X510000Y-510000D01*
X510000Y-190000D02*
X190000Y-510000D01*
X190000Y-7690000D02*
X510000Y-8010000D01*
X510000Y-7690000D02*
X190000Y-8010000D01*
X9490000Y-190000D02*
X9810000Y-510000D01*
X9810000Y-190000D02*
X9490000Y-510000D01*
X9490000Y-7690000D02*
X9810000Y-8010000D01*
X9810000Y-7690000D02*
X9490000Y-8010000D01*
D11*
X255777Y-8516484D02*
X255777Y-8316484D01*
X255777Y-8316484D02*
X303396Y-8316484D01*
X303396Y-8316484D02*
X331967Y-8326008D01*
X331967Y-8326008D02*
X351015Y-8345055D01*
X351015Y-8345055D02*
X360539Y-8364103D01*
X360539Y-8364103D02*
X370062Y-8402198D01*
X370062Y-8402198D02*
X370062Y-8430770D01*
X370062Y-8430770D02*
X360539Y-8468865D01*
X360539Y-8468865D02*
X351015Y-8487912D01*
X351015Y-8487912D02*
X331967Y-8506960D01*
X331967Y-8506960D02*
X303396Y-8516484D01*
X303396Y-8516484D02*
X255777Y-8516484D01*
X455777Y-8516484D02*
X455777Y-8383150D01*
X455777Y-8421246D02*
X465301Y-8402198D01*
X465301Y-8402198D02*
X474824Y-8392674D01*
X474824Y-8392674D02*
X493872Y-8383150D01*
X493872Y-8383150D02*
X512920Y-8383150D01*
X579586Y-8516484D02*
X579586Y-8383150D01*
X579586Y-8316484D02*
X570063Y-8326008D01*
X570063Y-8326008D02*
X579586Y-8335531D01*
X579586Y-8335531D02*
X589110Y-8326008D01*
X589110Y-8326008D02*
X579586Y-8316484D01*
X579586Y-8316484D02*
X579586Y-8335531D01*
X703396Y-8516484D02*
X684348Y-8506960D01*
X684348Y-8506960D02*
X674824Y-8487912D01*
X674824Y-8487912D02*
X674824Y-8316484D01*
X808158Y-8516484D02*
X789110Y-8506960D01*
X789110Y-8506960D02*
X779586Y-8487912D01*
X779586Y-8487912D02*
X779586Y-8316484D01*
X1036729Y-8516484D02*
X1036729Y-8316484D01*
X1036729Y-8316484D02*
X1103396Y-8459341D01*
X1103396Y-8459341D02*
X1170063Y-8316484D01*
X1170063Y-8316484D02*
X1170063Y-8516484D01*
X1351015Y-8516484D02*
X1351015Y-8411722D01*
X1351015Y-8411722D02*
X1341491Y-8392674D01*
X1341491Y-8392674D02*
X1322444Y-8383150D01*
X1322444Y-8383150D02*
X1284348Y-8383150D01*
X1284348Y-8383150D02*
X1265301Y-8392674D01*
X1351015Y-8506960D02*
X1331967Y-8516484D01*
X1331967Y-8516484D02*
X1284348Y-8516484D01*
X1284348Y-8516484D02*
X1265301Y-8506960D01*
X1265301Y-8506960D02*
X1255777Y-8487912D01*
X1255777Y-8487912D02*
X1255777Y-8468865D01*
X1255777Y-8468865D02*
X1265301Y-8449817D01*
X1265301Y-8449817D02*
X1284348Y-8440293D01*
X1284348Y-8440293D02*
X1331967Y-8440293D01*
X1331967Y-8440293D02*
X1351015Y-8430770D01*
X1446253Y-8383150D02*
X1446253Y-8583150D01*
X1446253Y-8392674D02*
X1465301Y-8383150D01*
X1465301Y-8383150D02*
X1503396Y-8383150D01*
X1503396Y-8383150D02*
X1522443Y-8392674D01*
X1522443Y-8392674D02*
X1531967Y-8402198D01*
X1531967Y-8402198D02*
X1541491Y-8421246D01*
X1541491Y-8421246D02*
X1541491Y-8478389D01*
X1541491Y-8478389D02*
X1531967Y-8497436D01*
X1531967Y-8497436D02*
X1522443Y-8506960D01*
X1522443Y-8506960D02*
X1503396Y-8516484D01*
X1503396Y-8516484D02*
X1465301Y-8516484D01*
X1465301Y-8516484D02*
X1446253Y-8506960D01*
X1627205Y-8497436D02*
X1636729Y-8506960D01*
X1636729Y-8506960D02*
X1627205Y-8516484D01*
X1627205Y-8516484D02*
X1617682Y-8506960D01*
X1617682Y-8506960D02*
X1627205Y-8497436D01*
X1627205Y-8497436D02*
X1627205Y-8516484D01*
X1627205Y-8392674D02*
X1636729Y-8402198D01*
X1636729Y-8402198D02*
X1627205Y-8411722D01*
X1627205Y-8411722D02*
X1617682Y-8402198D01*
X1617682Y-8402198D02*
X1627205Y-8392674D01*
X1627205Y-8392674D02*
X1627205Y-8411722D01*
X-205000Y-8745000D02*
X-5000Y-8945000D01*
X-5000Y-8745000D02*
X-205000Y-8945000D01*
X236729Y-8736484D02*
X360539Y-8736484D01*
X360539Y-8736484D02*
X293872Y-8812674D01*
X293872Y-8812674D02*
X322444Y-8812674D01*
X322444Y-8812674D02*
X341491Y-8822198D01*
X341491Y-8822198D02*
X351015Y-8831722D01*
X351015Y-8831722D02*
X360539Y-8850770D01*
X360539Y-8850770D02*
X360539Y-8898389D01*
X360539Y-8898389D02*
X351015Y-8917436D01*
X351015Y-8917436D02*
X341491Y-8926960D01*
X341491Y-8926960D02*
X322444Y-8936484D01*
X322444Y-8936484D02*
X265301Y-8936484D01*
X265301Y-8936484D02*
X246253Y-8926960D01*
X246253Y-8926960D02*
X236729Y-8917436D01*
X446253Y-8917436D02*
X455777Y-8926960D01*
X455777Y-8926960D02*
X446253Y-8936484D01*
X446253Y-8936484D02*
X436729Y-8926960D01*
X436729Y-8926960D02*
X446253Y-8917436D01*
X446253Y-8917436D02*
X446253Y-8936484D01*
X531967Y-8755531D02*
X541491Y-8746008D01*
X541491Y-8746008D02*
X560539Y-8736484D01*
X560539Y-8736484D02*
X608158Y-8736484D01*
X608158Y-8736484D02*
X627205Y-8746008D01*
X627205Y-8746008D02*
X636729Y-8755531D01*
X636729Y-8755531D02*
X646253Y-8774579D01*
X646253Y-8774579D02*
X646253Y-8793627D01*
X646253Y-8793627D02*
X636729Y-8822198D01*
X636729Y-8822198D02*
X522443Y-8936484D01*
X522443Y-8936484D02*
X646253Y-8936484D01*
X770062Y-8736484D02*
X789110Y-8736484D01*
X789110Y-8736484D02*
X808158Y-8746008D01*
X808158Y-8746008D02*
X817682Y-8755531D01*
X817682Y-8755531D02*
X827205Y-8774579D01*
X827205Y-8774579D02*
X836729Y-8812674D01*
X836729Y-8812674D02*
X836729Y-8860293D01*
X836729Y-8860293D02*
X827205Y-8898389D01*
X827205Y-8898389D02*
X817682Y-8917436D01*
X817682Y-8917436D02*
X808158Y-8926960D01*
X808158Y-8926960D02*
X789110Y-8936484D01*
X789110Y-8936484D02*
X770062Y-8936484D01*
X770062Y-8936484D02*
X751015Y-8926960D01*
X751015Y-8926960D02*
X741491Y-8917436D01*
X741491Y-8917436D02*
X731967Y-8898389D01*
X731967Y-8898389D02*
X722443Y-8860293D01*
X722443Y-8860293D02*
X722443Y-8812674D01*
X722443Y-8812674D02*
X731967Y-8774579D01*
X731967Y-8774579D02*
X741491Y-8755531D01*
X741491Y-8755531D02*
X751015Y-8746008D01*
X751015Y-8746008D02*
X770062Y-8736484D01*
X960539Y-8736484D02*
X979586Y-8736484D01*
X979586Y-8736484D02*
X998634Y-8746008D01*
X998634Y-8746008D02*
X1008158Y-8755531D01*
X1008158Y-8755531D02*
X1017682Y-8774579D01*
X1017682Y-8774579D02*
X1027205Y-8812674D01*
X1027205Y-8812674D02*
X1027205Y-8860293D01*
X1027205Y-8860293D02*
X1017682Y-8898389D01*
X1017682Y-8898389D02*
X1008158Y-8917436D01*
X1008158Y-8917436D02*
X998634Y-8926960D01*
X998634Y-8926960D02*
X979586Y-8936484D01*
X979586Y-8936484D02*
X960539Y-8936484D01*
X960539Y-8936484D02*
X941491Y-8926960D01*
X941491Y-8926960D02*
X931967Y-8917436D01*
X931967Y-8917436D02*
X922443Y-8898389D01*
X922443Y-8898389D02*
X912920Y-8860293D01*
X912920Y-8860293D02*
X912920Y-8812674D01*
X912920Y-8812674D02*
X922443Y-8774579D01*
X922443Y-8774579D02*
X931967Y-8755531D01*
X931967Y-8755531D02*
X941491Y-8746008D01*
X941491Y-8746008D02*
X960539Y-8736484D01*
X1112920Y-8936484D02*
X1112920Y-8803150D01*
X1112920Y-8822198D02*
X1122444Y-8812674D01*
X1122444Y-8812674D02*
X1141491Y-8803150D01*
X1141491Y-8803150D02*
X1170063Y-8803150D01*
X1170063Y-8803150D02*
X1189110Y-8812674D01*
X1189110Y-8812674D02*
X1198634Y-8831722D01*
X1198634Y-8831722D02*
X1198634Y-8936484D01*
X1198634Y-8831722D02*
X1208158Y-8812674D01*
X1208158Y-8812674D02*
X1227205Y-8803150D01*
X1227205Y-8803150D02*
X1255777Y-8803150D01*
X1255777Y-8803150D02*
X1274825Y-8812674D01*
X1274825Y-8812674D02*
X1284348Y-8831722D01*
X1284348Y-8831722D02*
X1284348Y-8936484D01*
X1379586Y-8936484D02*
X1379586Y-8803150D01*
X1379586Y-8822198D02*
X1389110Y-8812674D01*
X1389110Y-8812674D02*
X1408158Y-8803150D01*
X1408158Y-8803150D02*
X1436729Y-8803150D01*
X1436729Y-8803150D02*
X1455777Y-8812674D01*
X1455777Y-8812674D02*
X1465301Y-8831722D01*
X1465301Y-8831722D02*
X1465301Y-8936484D01*
X1465301Y-8831722D02*
X1474824Y-8812674D01*
X1474824Y-8812674D02*
X1493872Y-8803150D01*
X1493872Y-8803150D02*
X1522443Y-8803150D01*
X1522443Y-8803150D02*
X1541491Y-8812674D01*
X1541491Y-8812674D02*
X1551015Y-8831722D01*
X1551015Y-8831722D02*
X1551015Y-8936484D01*
X1941491Y-8726960D02*
X1770063Y-8984103D01*
X2198634Y-8736484D02*
X2217682Y-8736484D01*
X2217682Y-8736484D02*
X2236729Y-8746008D01*
X2236729Y-8746008D02*
X2246253Y-8755531D01*
X2246253Y-8755531D02*
X2255777Y-8774579D01*
X2255777Y-8774579D02*
X2265301Y-8812674D01*
X2265301Y-8812674D02*
X2265301Y-8860293D01*
X2265301Y-8860293D02*
X2255777Y-8898389D01*
X2255777Y-8898389D02*
X2246253Y-8917436D01*
X2246253Y-8917436D02*
X2236729Y-8926960D01*
X2236729Y-8926960D02*
X2217682Y-8936484D01*
X2217682Y-8936484D02*
X2198634Y-8936484D01*
X2198634Y-8936484D02*
X2179587Y-8926960D01*
X2179587Y-8926960D02*
X2170063Y-8917436D01*
X2170063Y-8917436D02*
X2160539Y-8898389D01*
X2160539Y-8898389D02*
X2151015Y-8860293D01*
X2151015Y-8860293D02*
X2151015Y-8812674D01*
X2151015Y-8812674D02*
X2160539Y-8774579D01*
X2160539Y-8774579D02*
X2170063Y-8755531D01*
X2170063Y-8755531D02*
X2179587Y-8746008D01*
X2179587Y-8746008D02*
X2198634Y-8736484D01*
X2351015Y-8917436D02*
X2360539Y-8926960D01*
X2360539Y-8926960D02*
X2351015Y-8936484D01*
X2351015Y-8936484D02*
X2341491Y-8926960D01*
X2341491Y-8926960D02*
X2351015Y-8917436D01*
X2351015Y-8917436D02*
X2351015Y-8936484D01*
X2551015Y-8936484D02*
X2436729Y-8936484D01*
X2493872Y-8936484D02*
X2493872Y-8736484D01*
X2493872Y-8736484D02*
X2474825Y-8765055D01*
X2474825Y-8765055D02*
X2455777Y-8784103D01*
X2455777Y-8784103D02*
X2436729Y-8793627D01*
X2627206Y-8755531D02*
X2636729Y-8746008D01*
X2636729Y-8746008D02*
X2655777Y-8736484D01*
X2655777Y-8736484D02*
X2703396Y-8736484D01*
X2703396Y-8736484D02*
X2722444Y-8746008D01*
X2722444Y-8746008D02*
X2731968Y-8755531D01*
X2731968Y-8755531D02*
X2741491Y-8774579D01*
X2741491Y-8774579D02*
X2741491Y-8793627D01*
X2741491Y-8793627D02*
X2731968Y-8822198D01*
X2731968Y-8822198D02*
X2617682Y-8936484D01*
X2617682Y-8936484D02*
X2741491Y-8936484D01*
X2912920Y-8736484D02*
X2874825Y-8736484D01*
X2874825Y-8736484D02*
X2855777Y-8746008D01*
X2855777Y-8746008D02*
X2846253Y-8755531D01*
X2846253Y-8755531D02*
X2827206Y-8784103D01*
X2827206Y-8784103D02*
X2817682Y-8822198D01*
X2817682Y-8822198D02*
X2817682Y-8898389D01*
X2817682Y-8898389D02*
X2827206Y-8917436D01*
X2827206Y-8917436D02*
X2836729Y-8926960D01*
X2836729Y-8926960D02*
X2855777Y-8936484D01*
X2855777Y-8936484D02*
X2893872Y-8936484D01*
X2893872Y-8936484D02*
X2912920Y-8926960D01*
X2912920Y-8926960D02*
X2922444Y-8917436D01*
X2922444Y-8917436D02*
X2931967Y-8898389D01*
X2931967Y-8898389D02*
X2931967Y-8850770D01*
X2931967Y-8850770D02*
X2922444Y-8831722D01*
X2922444Y-8831722D02*
X2912920Y-8822198D01*
X2912920Y-8822198D02*
X2893872Y-8812674D01*
X2893872Y-8812674D02*
X2855777Y-8812674D01*
X2855777Y-8812674D02*
X2836729Y-8822198D01*
X2836729Y-8822198D02*
X2827206Y-8831722D01*
X2827206Y-8831722D02*
X2817682Y-8850770D01*
X3055777Y-8736484D02*
X3074825Y-8736484D01*
X3074825Y-8736484D02*
X3093872Y-8746008D01*
X3093872Y-8746008D02*
X3103396Y-8755531D01*
X3103396Y-8755531D02*
X3112920Y-8774579D01*
X3112920Y-8774579D02*
X3122444Y-8812674D01*
X3122444Y-8812674D02*
X3122444Y-8860293D01*
X3122444Y-8860293D02*
X3112920Y-8898389D01*
X3112920Y-8898389D02*
X3103396Y-8917436D01*
X3103396Y-8917436D02*
X3093872Y-8926960D01*
X3093872Y-8926960D02*
X3074825Y-8936484D01*
X3074825Y-8936484D02*
X3055777Y-8936484D01*
X3055777Y-8936484D02*
X3036729Y-8926960D01*
X3036729Y-8926960D02*
X3027206Y-8917436D01*
X3027206Y-8917436D02*
X3017682Y-8898389D01*
X3017682Y-8898389D02*
X3008158Y-8860293D01*
X3008158Y-8860293D02*
X3008158Y-8812674D01*
X3008158Y-8812674D02*
X3017682Y-8774579D01*
X3017682Y-8774579D02*
X3027206Y-8755531D01*
X3027206Y-8755531D02*
X3036729Y-8746008D01*
X3036729Y-8746008D02*
X3055777Y-8736484D01*
X3198634Y-8736484D02*
X3198634Y-8774579D01*
X3274825Y-8736484D02*
X3274825Y-8774579D01*
X3570063Y-9012674D02*
X3560539Y-9003150D01*
X3560539Y-9003150D02*
X3541491Y-8974579D01*
X3541491Y-8974579D02*
X3531968Y-8955531D01*
X3531968Y-8955531D02*
X3522444Y-8926960D01*
X3522444Y-8926960D02*
X3512920Y-8879341D01*
X3512920Y-8879341D02*
X3512920Y-8841246D01*
X3512920Y-8841246D02*
X3522444Y-8793627D01*
X3522444Y-8793627D02*
X3531968Y-8765055D01*
X3531968Y-8765055D02*
X3541491Y-8746008D01*
X3541491Y-8746008D02*
X3560539Y-8717436D01*
X3560539Y-8717436D02*
X3570063Y-8707912D01*
X3731968Y-8803150D02*
X3731968Y-8936484D01*
X3684348Y-8726960D02*
X3636729Y-8869817D01*
X3636729Y-8869817D02*
X3760539Y-8869817D01*
X3989110Y-8936484D02*
X3989110Y-8736484D01*
X4074825Y-8936484D02*
X4074825Y-8831722D01*
X4074825Y-8831722D02*
X4065301Y-8812674D01*
X4065301Y-8812674D02*
X4046253Y-8803150D01*
X4046253Y-8803150D02*
X4017682Y-8803150D01*
X4017682Y-8803150D02*
X3998634Y-8812674D01*
X3998634Y-8812674D02*
X3989110Y-8822198D01*
X4198634Y-8936484D02*
X4179587Y-8926960D01*
X4179587Y-8926960D02*
X4170063Y-8917436D01*
X4170063Y-8917436D02*
X4160539Y-8898389D01*
X4160539Y-8898389D02*
X4160539Y-8841246D01*
X4160539Y-8841246D02*
X4170063Y-8822198D01*
X4170063Y-8822198D02*
X4179587Y-8812674D01*
X4179587Y-8812674D02*
X4198634Y-8803150D01*
X4198634Y-8803150D02*
X4227206Y-8803150D01*
X4227206Y-8803150D02*
X4246253Y-8812674D01*
X4246253Y-8812674D02*
X4255777Y-8822198D01*
X4255777Y-8822198D02*
X4265301Y-8841246D01*
X4265301Y-8841246D02*
X4265301Y-8898389D01*
X4265301Y-8898389D02*
X4255777Y-8917436D01*
X4255777Y-8917436D02*
X4246253Y-8926960D01*
X4246253Y-8926960D02*
X4227206Y-8936484D01*
X4227206Y-8936484D02*
X4198634Y-8936484D01*
X4379587Y-8936484D02*
X4360539Y-8926960D01*
X4360539Y-8926960D02*
X4351015Y-8907912D01*
X4351015Y-8907912D02*
X4351015Y-8736484D01*
X4531968Y-8926960D02*
X4512920Y-8936484D01*
X4512920Y-8936484D02*
X4474825Y-8936484D01*
X4474825Y-8936484D02*
X4455777Y-8926960D01*
X4455777Y-8926960D02*
X4446253Y-8907912D01*
X4446253Y-8907912D02*
X4446253Y-8831722D01*
X4446253Y-8831722D02*
X4455777Y-8812674D01*
X4455777Y-8812674D02*
X4474825Y-8803150D01*
X4474825Y-8803150D02*
X4512920Y-8803150D01*
X4512920Y-8803150D02*
X4531968Y-8812674D01*
X4531968Y-8812674D02*
X4541492Y-8831722D01*
X4541492Y-8831722D02*
X4541492Y-8850770D01*
X4541492Y-8850770D02*
X4446253Y-8869817D01*
X4617682Y-8926960D02*
X4636730Y-8936484D01*
X4636730Y-8936484D02*
X4674825Y-8936484D01*
X4674825Y-8936484D02*
X4693873Y-8926960D01*
X4693873Y-8926960D02*
X4703396Y-8907912D01*
X4703396Y-8907912D02*
X4703396Y-8898389D01*
X4703396Y-8898389D02*
X4693873Y-8879341D01*
X4693873Y-8879341D02*
X4674825Y-8869817D01*
X4674825Y-8869817D02*
X4646253Y-8869817D01*
X4646253Y-8869817D02*
X4627206Y-8860293D01*
X4627206Y-8860293D02*
X4617682Y-8841246D01*
X4617682Y-8841246D02*
X4617682Y-8831722D01*
X4617682Y-8831722D02*
X4627206Y-8812674D01*
X4627206Y-8812674D02*
X4646253Y-8803150D01*
X4646253Y-8803150D02*
X4674825Y-8803150D01*
X4674825Y-8803150D02*
X4693873Y-8812674D01*
X4770063Y-9012674D02*
X4779587Y-9003150D01*
X4779587Y-9003150D02*
X4798634Y-8974579D01*
X4798634Y-8974579D02*
X4808158Y-8955531D01*
X4808158Y-8955531D02*
X4817682Y-8926960D01*
X4817682Y-8926960D02*
X4827206Y-8879341D01*
X4827206Y-8879341D02*
X4827206Y-8841246D01*
X4827206Y-8841246D02*
X4817682Y-8793627D01*
X4817682Y-8793627D02*
X4808158Y-8765055D01*
X4808158Y-8765055D02*
X4798634Y-8746008D01*
X4798634Y-8746008D02*
X4779587Y-8717436D01*
X4779587Y-8717436D02*
X4770063Y-8707912D01*
X5131968Y-9012674D02*
X5122444Y-9003150D01*
X5122444Y-9003150D02*
X5103396Y-8974579D01*
X5103396Y-8974579D02*
X5093873Y-8955531D01*
X5093873Y-8955531D02*
X5084349Y-8926960D01*
X5084349Y-8926960D02*
X5074825Y-8879341D01*
X5074825Y-8879341D02*
X5074825Y-8841246D01*
X5074825Y-8841246D02*
X5084349Y-8793627D01*
X5084349Y-8793627D02*
X5093873Y-8765055D01*
X5093873Y-8765055D02*
X5103396Y-8746008D01*
X5103396Y-8746008D02*
X5122444Y-8717436D01*
X5122444Y-8717436D02*
X5131968Y-8707912D01*
X5208158Y-8803150D02*
X5208158Y-8936484D01*
X5208158Y-8822198D02*
X5217682Y-8812674D01*
X5217682Y-8812674D02*
X5236730Y-8803150D01*
X5236730Y-8803150D02*
X5265301Y-8803150D01*
X5265301Y-8803150D02*
X5284349Y-8812674D01*
X5284349Y-8812674D02*
X5293873Y-8831722D01*
X5293873Y-8831722D02*
X5293873Y-8936484D01*
X5417682Y-8936484D02*
X5398634Y-8926960D01*
X5398634Y-8926960D02*
X5389111Y-8917436D01*
X5389111Y-8917436D02*
X5379587Y-8898389D01*
X5379587Y-8898389D02*
X5379587Y-8841246D01*
X5379587Y-8841246D02*
X5389111Y-8822198D01*
X5389111Y-8822198D02*
X5398634Y-8812674D01*
X5398634Y-8812674D02*
X5417682Y-8803150D01*
X5417682Y-8803150D02*
X5446254Y-8803150D01*
X5446254Y-8803150D02*
X5465301Y-8812674D01*
X5465301Y-8812674D02*
X5474825Y-8822198D01*
X5474825Y-8822198D02*
X5484349Y-8841246D01*
X5484349Y-8841246D02*
X5484349Y-8898389D01*
X5484349Y-8898389D02*
X5474825Y-8917436D01*
X5474825Y-8917436D02*
X5465301Y-8926960D01*
X5465301Y-8926960D02*
X5446254Y-8936484D01*
X5446254Y-8936484D02*
X5417682Y-8936484D01*
X5541492Y-8803150D02*
X5617682Y-8803150D01*
X5570063Y-8736484D02*
X5570063Y-8907912D01*
X5570063Y-8907912D02*
X5579587Y-8926960D01*
X5579587Y-8926960D02*
X5598634Y-8936484D01*
X5598634Y-8936484D02*
X5617682Y-8936484D01*
X5836730Y-8803150D02*
X5836730Y-9003150D01*
X5836730Y-8812674D02*
X5855777Y-8803150D01*
X5855777Y-8803150D02*
X5893873Y-8803150D01*
X5893873Y-8803150D02*
X5912920Y-8812674D01*
X5912920Y-8812674D02*
X5922444Y-8822198D01*
X5922444Y-8822198D02*
X5931968Y-8841246D01*
X5931968Y-8841246D02*
X5931968Y-8898389D01*
X5931968Y-8898389D02*
X5922444Y-8917436D01*
X5922444Y-8917436D02*
X5912920Y-8926960D01*
X5912920Y-8926960D02*
X5893873Y-8936484D01*
X5893873Y-8936484D02*
X5855777Y-8936484D01*
X5855777Y-8936484D02*
X5836730Y-8926960D01*
X6046253Y-8936484D02*
X6027206Y-8926960D01*
X6027206Y-8926960D02*
X6017682Y-8907912D01*
X6017682Y-8907912D02*
X6017682Y-8736484D01*
X6208158Y-8936484D02*
X6208158Y-8831722D01*
X6208158Y-8831722D02*
X6198634Y-8812674D01*
X6198634Y-8812674D02*
X6179587Y-8803150D01*
X6179587Y-8803150D02*
X6141492Y-8803150D01*
X6141492Y-8803150D02*
X6122444Y-8812674D01*
X6208158Y-8926960D02*
X6189111Y-8936484D01*
X6189111Y-8936484D02*
X6141492Y-8936484D01*
X6141492Y-8936484D02*
X6122444Y-8926960D01*
X6122444Y-8926960D02*
X6112920Y-8907912D01*
X6112920Y-8907912D02*
X6112920Y-8888865D01*
X6112920Y-8888865D02*
X6122444Y-8869817D01*
X6122444Y-8869817D02*
X6141492Y-8860293D01*
X6141492Y-8860293D02*
X6189111Y-8860293D01*
X6189111Y-8860293D02*
X6208158Y-8850770D01*
X6274825Y-8803150D02*
X6351015Y-8803150D01*
X6303396Y-8736484D02*
X6303396Y-8907912D01*
X6303396Y-8907912D02*
X6312920Y-8926960D01*
X6312920Y-8926960D02*
X6331968Y-8936484D01*
X6331968Y-8936484D02*
X6351015Y-8936484D01*
X6493873Y-8926960D02*
X6474825Y-8936484D01*
X6474825Y-8936484D02*
X6436730Y-8936484D01*
X6436730Y-8936484D02*
X6417682Y-8926960D01*
X6417682Y-8926960D02*
X6408158Y-8907912D01*
X6408158Y-8907912D02*
X6408158Y-8831722D01*
X6408158Y-8831722D02*
X6417682Y-8812674D01*
X6417682Y-8812674D02*
X6436730Y-8803150D01*
X6436730Y-8803150D02*
X6474825Y-8803150D01*
X6474825Y-8803150D02*
X6493873Y-8812674D01*
X6493873Y-8812674D02*
X6503396Y-8831722D01*
X6503396Y-8831722D02*
X6503396Y-8850770D01*
X6503396Y-8850770D02*
X6408158Y-8869817D01*
X6674825Y-8936484D02*
X6674825Y-8736484D01*
X6674825Y-8926960D02*
X6655777Y-8936484D01*
X6655777Y-8936484D02*
X6617682Y-8936484D01*
X6617682Y-8936484D02*
X6598634Y-8926960D01*
X6598634Y-8926960D02*
X6589111Y-8917436D01*
X6589111Y-8917436D02*
X6579587Y-8898389D01*
X6579587Y-8898389D02*
X6579587Y-8841246D01*
X6579587Y-8841246D02*
X6589111Y-8822198D01*
X6589111Y-8822198D02*
X6598634Y-8812674D01*
X6598634Y-8812674D02*
X6617682Y-8803150D01*
X6617682Y-8803150D02*
X6655777Y-8803150D01*
X6655777Y-8803150D02*
X6674825Y-8812674D01*
X6751015Y-9012674D02*
X6760539Y-9003150D01*
X6760539Y-9003150D02*
X6779587Y-8974579D01*
X6779587Y-8974579D02*
X6789111Y-8955531D01*
X6789111Y-8955531D02*
X6798634Y-8926960D01*
X6798634Y-8926960D02*
X6808158Y-8879341D01*
X6808158Y-8879341D02*
X6808158Y-8841246D01*
X6808158Y-8841246D02*
X6798634Y-8793627D01*
X6798634Y-8793627D02*
X6789111Y-8765055D01*
X6789111Y-8765055D02*
X6779587Y-8746008D01*
X6779587Y-8746008D02*
X6760539Y-8717436D01*
X6760539Y-8717436D02*
X6751015Y-8707912D01*
M02*
