%TF.GenerationSoftware,KiCad,Pcbnew,7.0.11+dfsg-1build4*%
%TF.CreationDate,2026-10-02T04:18:51+00:00*%
%TF.ProjectId,hijet_starter,68696a65-745f-4737-9461-727465722e6b,rev?*%
%TF.SameCoordinates,Original*%
%TF.FileFunction,Drillmap*%
%TF.FilePolarity,Positive*%
%FSLAX45Y45*%
G04 Gerber Fmt 4.5, Leading zero omitted, Abs format (unit mm)*
G04 Created by KiCad (PCBNEW 7.0.11+dfsg-1build4) date 2026-10-02 04:18:51*
%MOMM*%
%LPD*%
G01*
G04 APERTURE LIST*
%ADD10C,0.100000*%
%ADD11C,0.200000*%
%ADD12C,0.110000*%
%ADD13C,0.120000*%
%ADD14C,0.130000*%
%ADD15C,0.178000*%
G04 APERTURE END LIST*
D10*
X0Y0D02*
X10000000Y0D01*
X0Y-8200000D02*
X0Y0D01*
X10000000Y0D02*
X10000000Y-8200000D01*
X10000000Y-8200000D02*
X0Y-8200000D01*
D11*
D10*
X5405000Y-3030000D02*
X5445000Y-3070000D01*
X5445000Y-3030000D02*
X5405000Y-3070000D01*
X5580000Y-1855000D02*
X5620000Y-1895000D01*
X5620000Y-1855000D02*
X5580000Y-1895000D01*
X5655000Y-4680000D02*
X5695000Y-4720000D01*
X5695000Y-4680000D02*
X5655000Y-4720000D01*
X5830000Y-2905000D02*
X5870000Y-2945000D01*
X5870000Y-2905000D02*
X5830000Y-2945000D01*
X1440000Y-6100000D02*
G75*
G03*
X1360000Y-6100000I-40000J0D01*
G01*
X1360000Y-6100000D02*
G75*
G03*
X1440000Y-6100000I40000J0D01*
G01*
X1440000Y-6800000D02*
G75*
G03*
X1360000Y-6800000I-40000J0D01*
G01*
X1360000Y-6800000D02*
G75*
G03*
X1440000Y-6800000I40000J0D01*
G01*
X1578000Y-6450000D02*
G75*
G03*
X1498000Y-6450000I-40000J0D01*
G01*
X1498000Y-6450000D02*
G75*
G03*
X1578000Y-6450000I40000J0D01*
G01*
X1578000Y-7150000D02*
G75*
G03*
X1498000Y-7150000I-40000J0D01*
G01*
X1498000Y-7150000D02*
G75*
G03*
X1578000Y-7150000I40000J0D01*
G01*
X1740000Y-2950000D02*
G75*
G03*
X1660000Y-2950000I-40000J0D01*
G01*
X1660000Y-2950000D02*
G75*
G03*
X1740000Y-2950000I40000J0D01*
G01*
X1740000Y-3204000D02*
G75*
G03*
X1660000Y-3204000I-40000J0D01*
G01*
X1660000Y-3204000D02*
G75*
G03*
X1740000Y-3204000I40000J0D01*
G01*
X1740000Y-3650000D02*
G75*
G03*
X1660000Y-3650000I-40000J0D01*
G01*
X1660000Y-3650000D02*
G75*
G03*
X1740000Y-3650000I40000J0D01*
G01*
X1740000Y-3904000D02*
G75*
G03*
X1660000Y-3904000I-40000J0D01*
G01*
X1660000Y-3904000D02*
G75*
G03*
X1740000Y-3904000I40000J0D01*
G01*
X1740000Y-4350000D02*
G75*
G03*
X1660000Y-4350000I-40000J0D01*
G01*
X1660000Y-4350000D02*
G75*
G03*
X1740000Y-4350000I40000J0D01*
G01*
X1740000Y-4604000D02*
G75*
G03*
X1660000Y-4604000I-40000J0D01*
G01*
X1660000Y-4604000D02*
G75*
G03*
X1740000Y-4604000I40000J0D01*
G01*
X1740000Y-5050000D02*
G75*
G03*
X1660000Y-5050000I-40000J0D01*
G01*
X1660000Y-5050000D02*
G75*
G03*
X1740000Y-5050000I40000J0D01*
G01*
X1740000Y-5304000D02*
G75*
G03*
X1660000Y-5304000I-40000J0D01*
G01*
X1660000Y-5304000D02*
G75*
G03*
X1740000Y-5304000I40000J0D01*
G01*
X2340000Y-6450000D02*
G75*
G03*
X2260000Y-6450000I-40000J0D01*
G01*
X2260000Y-6450000D02*
G75*
G03*
X2340000Y-6450000I40000J0D01*
G01*
X2340000Y-7150000D02*
G75*
G03*
X2260000Y-7150000I-40000J0D01*
G01*
X2260000Y-7150000D02*
G75*
G03*
X2340000Y-7150000I40000J0D01*
G01*
X2456000Y-6100000D02*
G75*
G03*
X2376000Y-6100000I-40000J0D01*
G01*
X2376000Y-6100000D02*
G75*
G03*
X2456000Y-6100000I40000J0D01*
G01*
X2456000Y-6800000D02*
G75*
G03*
X2376000Y-6800000I-40000J0D01*
G01*
X2376000Y-6800000D02*
G75*
G03*
X2456000Y-6800000I40000J0D01*
G01*
X2502000Y-2950000D02*
G75*
G03*
X2422000Y-2950000I-40000J0D01*
G01*
X2422000Y-2950000D02*
G75*
G03*
X2502000Y-2950000I40000J0D01*
G01*
X2502000Y-3204000D02*
G75*
G03*
X2422000Y-3204000I-40000J0D01*
G01*
X2422000Y-3204000D02*
G75*
G03*
X2502000Y-3204000I40000J0D01*
G01*
X2502000Y-3650000D02*
G75*
G03*
X2422000Y-3650000I-40000J0D01*
G01*
X2422000Y-3650000D02*
G75*
G03*
X2502000Y-3650000I40000J0D01*
G01*
X2502000Y-3904000D02*
G75*
G03*
X2422000Y-3904000I-40000J0D01*
G01*
X2422000Y-3904000D02*
G75*
G03*
X2502000Y-3904000I40000J0D01*
G01*
X2502000Y-4350000D02*
G75*
G03*
X2422000Y-4350000I-40000J0D01*
G01*
X2422000Y-4350000D02*
G75*
G03*
X2502000Y-4350000I40000J0D01*
G01*
X2502000Y-4604000D02*
G75*
G03*
X2422000Y-4604000I-40000J0D01*
G01*
X2422000Y-4604000D02*
G75*
G03*
X2502000Y-4604000I40000J0D01*
G01*
X2502000Y-5050000D02*
G75*
G03*
X2422000Y-5050000I-40000J0D01*
G01*
X2422000Y-5050000D02*
G75*
G03*
X2502000Y-5050000I40000J0D01*
G01*
X2502000Y-5304000D02*
G75*
G03*
X2422000Y-5304000I-40000J0D01*
G01*
X2422000Y-5304000D02*
G75*
G03*
X2502000Y-5304000I40000J0D01*
G01*
X2740000Y-2450000D02*
G75*
G03*
X2660000Y-2450000I-40000J0D01*
G01*
X2660000Y-2450000D02*
G75*
G03*
X2740000Y-2450000I40000J0D01*
G01*
X2840000Y-3204000D02*
G75*
G03*
X2760000Y-3204000I-40000J0D01*
G01*
X2760000Y-3204000D02*
G75*
G03*
X2840000Y-3204000I40000J0D01*
G01*
X2840000Y-3904000D02*
G75*
G03*
X2760000Y-3904000I-40000J0D01*
G01*
X2760000Y-3904000D02*
G75*
G03*
X2840000Y-3904000I40000J0D01*
G01*
X2840000Y-4604000D02*
G75*
G03*
X2760000Y-4604000I-40000J0D01*
G01*
X2760000Y-4604000D02*
G75*
G03*
X2840000Y-4604000I40000J0D01*
G01*
X2840000Y-5304000D02*
G75*
G03*
X2760000Y-5304000I-40000J0D01*
G01*
X2760000Y-5304000D02*
G75*
G03*
X2840000Y-5304000I40000J0D01*
G01*
X2840000Y-6100000D02*
G75*
G03*
X2760000Y-6100000I-40000J0D01*
G01*
X2760000Y-6100000D02*
G75*
G03*
X2840000Y-6100000I40000J0D01*
G01*
X2840000Y-6354000D02*
G75*
G03*
X2760000Y-6354000I-40000J0D01*
G01*
X2760000Y-6354000D02*
G75*
G03*
X2840000Y-6354000I40000J0D01*
G01*
X2840000Y-6800000D02*
G75*
G03*
X2760000Y-6800000I-40000J0D01*
G01*
X2760000Y-6800000D02*
G75*
G03*
X2840000Y-6800000I40000J0D01*
G01*
X2840000Y-7054000D02*
G75*
G03*
X2760000Y-7054000I-40000J0D01*
G01*
X2760000Y-7054000D02*
G75*
G03*
X2840000Y-7054000I40000J0D01*
G01*
X3440000Y-750000D02*
G75*
G03*
X3360000Y-750000I-40000J0D01*
G01*
X3360000Y-750000D02*
G75*
G03*
X3440000Y-750000I40000J0D01*
G01*
X3602000Y-6100000D02*
G75*
G03*
X3522000Y-6100000I-40000J0D01*
G01*
X3522000Y-6100000D02*
G75*
G03*
X3602000Y-6100000I40000J0D01*
G01*
X3602000Y-6354000D02*
G75*
G03*
X3522000Y-6354000I-40000J0D01*
G01*
X3522000Y-6354000D02*
G75*
G03*
X3602000Y-6354000I40000J0D01*
G01*
X3602000Y-6800000D02*
G75*
G03*
X3522000Y-6800000I-40000J0D01*
G01*
X3522000Y-6800000D02*
G75*
G03*
X3602000Y-6800000I40000J0D01*
G01*
X3602000Y-7054000D02*
G75*
G03*
X3522000Y-7054000I-40000J0D01*
G01*
X3522000Y-7054000D02*
G75*
G03*
X3602000Y-7054000I40000J0D01*
G01*
X3756000Y-2450000D02*
G75*
G03*
X3676000Y-2450000I-40000J0D01*
G01*
X3676000Y-2450000D02*
G75*
G03*
X3756000Y-2450000I40000J0D01*
G01*
X3790000Y-750000D02*
G75*
G03*
X3710000Y-750000I-40000J0D01*
G01*
X3710000Y-750000D02*
G75*
G03*
X3790000Y-750000I40000J0D01*
G01*
X3856000Y-3204000D02*
G75*
G03*
X3776000Y-3204000I-40000J0D01*
G01*
X3776000Y-3204000D02*
G75*
G03*
X3856000Y-3204000I40000J0D01*
G01*
X3856000Y-3904000D02*
G75*
G03*
X3776000Y-3904000I-40000J0D01*
G01*
X3776000Y-3904000D02*
G75*
G03*
X3856000Y-3904000I40000J0D01*
G01*
X3856000Y-4604000D02*
G75*
G03*
X3776000Y-4604000I-40000J0D01*
G01*
X3776000Y-4604000D02*
G75*
G03*
X3856000Y-4604000I40000J0D01*
G01*
X3856000Y-5304000D02*
G75*
G03*
X3776000Y-5304000I-40000J0D01*
G01*
X3776000Y-5304000D02*
G75*
G03*
X3856000Y-5304000I40000J0D01*
G01*
X4240000Y-5284000D02*
G75*
G03*
X4160000Y-5284000I-40000J0D01*
G01*
X4160000Y-5284000D02*
G75*
G03*
X4240000Y-5284000I40000J0D01*
G01*
X4240000Y-6300000D02*
G75*
G03*
X4160000Y-6300000I-40000J0D01*
G01*
X4160000Y-6300000D02*
G75*
G03*
X4240000Y-6300000I40000J0D01*
G01*
X4440000Y-2684000D02*
G75*
G03*
X4360000Y-2684000I-40000J0D01*
G01*
X4360000Y-2684000D02*
G75*
G03*
X4440000Y-2684000I40000J0D01*
G01*
X4440000Y-3700000D02*
G75*
G03*
X4360000Y-3700000I-40000J0D01*
G01*
X4360000Y-3700000D02*
G75*
G03*
X4440000Y-3700000I40000J0D01*
G01*
X4640000Y-5984000D02*
G75*
G03*
X4560000Y-5984000I-40000J0D01*
G01*
X4560000Y-5984000D02*
G75*
G03*
X4640000Y-5984000I40000J0D01*
G01*
X4640000Y-7000000D02*
G75*
G03*
X4560000Y-7000000I-40000J0D01*
G01*
X4560000Y-7000000D02*
G75*
G03*
X4640000Y-7000000I40000J0D01*
G01*
X4990000Y-2850000D02*
G75*
G03*
X4910000Y-2850000I-40000J0D01*
G01*
X4910000Y-2850000D02*
G75*
G03*
X4990000Y-2850000I40000J0D01*
G01*
X4990000Y-3100000D02*
G75*
G03*
X4910000Y-3100000I-40000J0D01*
G01*
X4910000Y-3100000D02*
G75*
G03*
X4990000Y-3100000I40000J0D01*
G01*
X5490000Y-2838000D02*
G75*
G03*
X5410000Y-2838000I-40000J0D01*
G01*
X5410000Y-2838000D02*
G75*
G03*
X5490000Y-2838000I40000J0D01*
G01*
X5490000Y-3600000D02*
G75*
G03*
X5410000Y-3600000I-40000J0D01*
G01*
X5410000Y-3600000D02*
G75*
G03*
X5490000Y-3600000I40000J0D01*
G01*
X5540000Y-1500000D02*
G75*
G03*
X5460000Y-1500000I-40000J0D01*
G01*
X5460000Y-1500000D02*
G75*
G03*
X5540000Y-1500000I40000J0D01*
G01*
X5740000Y-5350000D02*
G75*
G03*
X5660000Y-5350000I-40000J0D01*
G01*
X5660000Y-5350000D02*
G75*
G03*
X5740000Y-5350000I40000J0D01*
G01*
X5740000Y-5600000D02*
G75*
G03*
X5660000Y-5600000I-40000J0D01*
G01*
X5660000Y-5600000D02*
G75*
G03*
X5740000Y-5600000I40000J0D01*
G01*
X5790000Y-1500000D02*
G75*
G03*
X5710000Y-1500000I-40000J0D01*
G01*
X5710000Y-1500000D02*
G75*
G03*
X5790000Y-1500000I40000J0D01*
G01*
X4450000Y-850000D02*
X4450000Y-950000D01*
X4400000Y-900000D02*
X4500000Y-900000D01*
X4704000Y-850000D02*
X4704000Y-950000D01*
X4654000Y-900000D02*
X4754000Y-900000D01*
X4958000Y-850000D02*
X4958000Y-950000D01*
X4908000Y-900000D02*
X5008000Y-900000D01*
X6200000Y-750000D02*
X6200000Y-850000D01*
X6150000Y-800000D02*
X6250000Y-800000D01*
X6200000Y-1004000D02*
X6200000Y-1104000D01*
X6150000Y-1054000D02*
X6250000Y-1054000D01*
X6200000Y-1258000D02*
X6200000Y-1358000D01*
X6150000Y-1308000D02*
X6250000Y-1308000D01*
X6200000Y-1512000D02*
X6200000Y-1612000D01*
X6150000Y-1562000D02*
X6250000Y-1562000D01*
X6200000Y-1766000D02*
X6200000Y-1866000D01*
X6150000Y-1816000D02*
X6250000Y-1816000D01*
X6200000Y-2020000D02*
X6200000Y-2120000D01*
X6150000Y-2070000D02*
X6250000Y-2070000D01*
X6200000Y-2274000D02*
X6200000Y-2374000D01*
X6150000Y-2324000D02*
X6250000Y-2324000D01*
X6200000Y-2528000D02*
X6200000Y-2628000D01*
X6150000Y-2578000D02*
X6250000Y-2578000D01*
X6200000Y-2782000D02*
X6200000Y-2882000D01*
X6150000Y-2832000D02*
X6250000Y-2832000D01*
X6200000Y-3036000D02*
X6200000Y-3136000D01*
X6150000Y-3086000D02*
X6250000Y-3086000D01*
X6200000Y-3290000D02*
X6200000Y-3390000D01*
X6150000Y-3340000D02*
X6250000Y-3340000D01*
X6200000Y-3544000D02*
X6200000Y-3644000D01*
X6150000Y-3594000D02*
X6250000Y-3594000D01*
X6200000Y-3798000D02*
X6200000Y-3898000D01*
X6150000Y-3848000D02*
X6250000Y-3848000D01*
X6200000Y-4052000D02*
X6200000Y-4152000D01*
X6150000Y-4102000D02*
X6250000Y-4102000D01*
X6200000Y-4306000D02*
X6200000Y-4406000D01*
X6150000Y-4356000D02*
X6250000Y-4356000D01*
X6200000Y-4560000D02*
X6200000Y-4660000D01*
X6150000Y-4610000D02*
X6250000Y-4610000D01*
X6200000Y-4814000D02*
X6200000Y-4914000D01*
X6150000Y-4864000D02*
X6250000Y-4864000D01*
X6200000Y-5068000D02*
X6200000Y-5168000D01*
X6150000Y-5118000D02*
X6250000Y-5118000D01*
X6200000Y-5322000D02*
X6200000Y-5422000D01*
X6150000Y-5372000D02*
X6250000Y-5372000D01*
X8740000Y-750000D02*
X8740000Y-850000D01*
X8690000Y-800000D02*
X8790000Y-800000D01*
X8740000Y-1004000D02*
X8740000Y-1104000D01*
X8690000Y-1054000D02*
X8790000Y-1054000D01*
X8740000Y-1258000D02*
X8740000Y-1358000D01*
X8690000Y-1308000D02*
X8790000Y-1308000D01*
X8740000Y-1512000D02*
X8740000Y-1612000D01*
X8690000Y-1562000D02*
X8790000Y-1562000D01*
X8740000Y-1766000D02*
X8740000Y-1866000D01*
X8690000Y-1816000D02*
X8790000Y-1816000D01*
X8740000Y-2020000D02*
X8740000Y-2120000D01*
X8690000Y-2070000D02*
X8790000Y-2070000D01*
X8740000Y-2274000D02*
X8740000Y-2374000D01*
X8690000Y-2324000D02*
X8790000Y-2324000D01*
X8740000Y-2528000D02*
X8740000Y-2628000D01*
X8690000Y-2578000D02*
X8790000Y-2578000D01*
X8740000Y-2782000D02*
X8740000Y-2882000D01*
X8690000Y-2832000D02*
X8790000Y-2832000D01*
X8740000Y-3036000D02*
X8740000Y-3136000D01*
X8690000Y-3086000D02*
X8790000Y-3086000D01*
X8740000Y-3290000D02*
X8740000Y-3390000D01*
X8690000Y-3340000D02*
X8790000Y-3340000D01*
X8740000Y-3544000D02*
X8740000Y-3644000D01*
X8690000Y-3594000D02*
X8790000Y-3594000D01*
X8740000Y-3798000D02*
X8740000Y-3898000D01*
X8690000Y-3848000D02*
X8790000Y-3848000D01*
X8740000Y-4052000D02*
X8740000Y-4152000D01*
X8690000Y-4102000D02*
X8790000Y-4102000D01*
X8740000Y-4306000D02*
X8740000Y-4406000D01*
X8690000Y-4356000D02*
X8790000Y-4356000D01*
X8740000Y-4560000D02*
X8740000Y-4660000D01*
X8690000Y-4610000D02*
X8790000Y-4610000D01*
X8740000Y-4814000D02*
X8740000Y-4914000D01*
X8690000Y-4864000D02*
X8790000Y-4864000D01*
X8740000Y-5068000D02*
X8740000Y-5168000D01*
X8690000Y-5118000D02*
X8790000Y-5118000D01*
X8740000Y-5322000D02*
X8740000Y-5422000D01*
X8690000Y-5372000D02*
X8790000Y-5372000D01*
X9500000Y-1950000D02*
X9500000Y-2050000D01*
X9450000Y-2000000D02*
X9550000Y-2000000D01*
X9500000Y-2204000D02*
X9500000Y-2304000D01*
X9450000Y-2254000D02*
X9550000Y-2254000D01*
X9500000Y-2458000D02*
X9500000Y-2558000D01*
X9450000Y-2508000D02*
X9550000Y-2508000D01*
X9500000Y-2712000D02*
X9500000Y-2812000D01*
X9450000Y-2762000D02*
X9550000Y-2762000D01*
D12*
X2822891Y-1588891D02*
X2822891Y-1511109D01*
X2745109Y-1511109D01*
X2745109Y-1588891D01*
X2822891Y-1588891D01*
X3838891Y-1588891D02*
X3838891Y-1511109D01*
X3761109Y-1511109D01*
X3761109Y-1588891D01*
X3838891Y-1588891D01*
D13*
X550000Y-2960000D02*
X610000Y-2900000D01*
X550000Y-2840000D01*
X490000Y-2900000D01*
X550000Y-2960000D01*
X550000Y-3310000D02*
X610000Y-3250000D01*
X550000Y-3190000D01*
X490000Y-3250000D01*
X550000Y-3310000D01*
X550000Y-3660000D02*
X610000Y-3600000D01*
X550000Y-3540000D01*
X490000Y-3600000D01*
X550000Y-3660000D01*
X550000Y-4010000D02*
X610000Y-3950000D01*
X550000Y-3890000D01*
X490000Y-3950000D01*
X550000Y-4010000D01*
X550000Y-4360000D02*
X610000Y-4300000D01*
X550000Y-4240000D01*
X490000Y-4300000D01*
X550000Y-4360000D01*
X550000Y-4710000D02*
X610000Y-4650000D01*
X550000Y-4590000D01*
X490000Y-4650000D01*
X550000Y-4710000D01*
X550000Y-5060000D02*
X610000Y-5000000D01*
X550000Y-4940000D01*
X490000Y-5000000D01*
X550000Y-5060000D01*
X550000Y-5410000D02*
X610000Y-5350000D01*
X550000Y-5290000D01*
X490000Y-5350000D01*
X550000Y-5410000D01*
X550000Y-6160000D02*
X610000Y-6100000D01*
X550000Y-6040000D01*
X490000Y-6100000D01*
X550000Y-6160000D01*
X550000Y-6510000D02*
X610000Y-6450000D01*
X550000Y-6390000D01*
X490000Y-6450000D01*
X550000Y-6510000D01*
X550000Y-6860000D02*
X610000Y-6800000D01*
X550000Y-6740000D01*
X490000Y-6800000D01*
X550000Y-6860000D01*
X550000Y-7210000D02*
X610000Y-7150000D01*
X550000Y-7090000D01*
X490000Y-7150000D01*
X550000Y-7210000D01*
X4100000Y-2210000D02*
X4160000Y-2150000D01*
X4100000Y-2090000D01*
X4040000Y-2150000D01*
X4100000Y-2210000D01*
X5370000Y-2210000D02*
X5430000Y-2150000D01*
X5370000Y-2090000D01*
X5310000Y-2150000D01*
X5370000Y-2210000D01*
D14*
X585000Y-1035000D02*
X715000Y-1165000D01*
X715000Y-1035000D02*
X585000Y-1165000D01*
X715000Y-1100000D02*
G75*
G03*
X585000Y-1100000I-65000J0D01*
G01*
X585000Y-1100000D02*
G75*
G03*
X715000Y-1100000I65000J0D01*
G01*
X585000Y-1543000D02*
X715000Y-1673000D01*
X715000Y-1543000D02*
X585000Y-1673000D01*
X715000Y-1608000D02*
G75*
G03*
X585000Y-1608000I-65000J0D01*
G01*
X585000Y-1608000D02*
G75*
G03*
X715000Y-1608000I65000J0D01*
G01*
X585000Y-2051000D02*
X715000Y-2181000D01*
X715000Y-2051000D02*
X585000Y-2181000D01*
X715000Y-2116000D02*
G75*
G03*
X585000Y-2116000I-65000J0D01*
G01*
X585000Y-2116000D02*
G75*
G03*
X715000Y-2116000I65000J0D01*
G01*
D15*
X1611000Y-511000D02*
X1789000Y-689000D01*
X1789000Y-511000D02*
X1611000Y-689000D01*
X1700000Y-511000D02*
X1700000Y-689000D01*
X1611000Y-600000D02*
X1789000Y-600000D01*
X1611000Y-851000D02*
X1789000Y-1029000D01*
X1789000Y-851000D02*
X1611000Y-1029000D01*
X1700000Y-851000D02*
X1700000Y-1029000D01*
X1611000Y-940000D02*
X1789000Y-940000D01*
X2603000Y-511000D02*
X2781000Y-689000D01*
X2781000Y-511000D02*
X2603000Y-689000D01*
X2692000Y-511000D02*
X2692000Y-689000D01*
X2603000Y-600000D02*
X2781000Y-600000D01*
X2603000Y-851000D02*
X2781000Y-1029000D01*
X2781000Y-851000D02*
X2603000Y-1029000D01*
X2692000Y-851000D02*
X2692000Y-1029000D01*
X2603000Y-940000D02*
X2781000Y-940000D01*
D11*
X255777Y-8516484D02*
X255777Y-8316484D01*
X255777Y-8316484D02*
X303396Y-8316484D01*
X303396Y-8316484D02*
X331967Y-8326008D01*
X331967Y-8326008D02*
X351015Y-8345055D01*
X351015Y-8345055D02*
X360539Y-8364103D01*
X360539Y-8364103D02*
X370062Y-8402198D01*
X370062Y-8402198D02*
X370062Y-8430770D01*
X370062Y-8430770D02*
X360539Y-8468865D01*
X360539Y-8468865D02*
X351015Y-8487912D01*
X351015Y-8487912D02*
X331967Y-8506960D01*
X331967Y-8506960D02*
X303396Y-8516484D01*
X303396Y-8516484D02*
X255777Y-8516484D01*
X455777Y-8516484D02*
X455777Y-8383150D01*
X455777Y-8421246D02*
X465301Y-8402198D01*
X465301Y-8402198D02*
X474824Y-8392674D01*
X474824Y-8392674D02*
X493872Y-8383150D01*
X493872Y-8383150D02*
X512920Y-8383150D01*
X579586Y-8516484D02*
X579586Y-8383150D01*
X579586Y-8316484D02*
X570063Y-8326008D01*
X570063Y-8326008D02*
X579586Y-8335531D01*
X579586Y-8335531D02*
X589110Y-8326008D01*
X589110Y-8326008D02*
X579586Y-8316484D01*
X579586Y-8316484D02*
X579586Y-8335531D01*
X703396Y-8516484D02*
X684348Y-8506960D01*
X684348Y-8506960D02*
X674824Y-8487912D01*
X674824Y-8487912D02*
X674824Y-8316484D01*
X808158Y-8516484D02*
X789110Y-8506960D01*
X789110Y-8506960D02*
X779586Y-8487912D01*
X779586Y-8487912D02*
X779586Y-8316484D01*
X1036729Y-8516484D02*
X1036729Y-8316484D01*
X1036729Y-8316484D02*
X1103396Y-8459341D01*
X1103396Y-8459341D02*
X1170063Y-8316484D01*
X1170063Y-8316484D02*
X1170063Y-8516484D01*
X1351015Y-8516484D02*
X1351015Y-8411722D01*
X1351015Y-8411722D02*
X1341491Y-8392674D01*
X1341491Y-8392674D02*
X1322444Y-8383150D01*
X1322444Y-8383150D02*
X1284348Y-8383150D01*
X1284348Y-8383150D02*
X1265301Y-8392674D01*
X1351015Y-8506960D02*
X1331967Y-8516484D01*
X1331967Y-8516484D02*
X1284348Y-8516484D01*
X1284348Y-8516484D02*
X1265301Y-8506960D01*
X1265301Y-8506960D02*
X1255777Y-8487912D01*
X1255777Y-8487912D02*
X1255777Y-8468865D01*
X1255777Y-8468865D02*
X1265301Y-8449817D01*
X1265301Y-8449817D02*
X1284348Y-8440293D01*
X1284348Y-8440293D02*
X1331967Y-8440293D01*
X1331967Y-8440293D02*
X1351015Y-8430770D01*
X1446253Y-8383150D02*
X1446253Y-8583150D01*
X1446253Y-8392674D02*
X1465301Y-8383150D01*
X1465301Y-8383150D02*
X1503396Y-8383150D01*
X1503396Y-8383150D02*
X1522443Y-8392674D01*
X1522443Y-8392674D02*
X1531967Y-8402198D01*
X1531967Y-8402198D02*
X1541491Y-8421246D01*
X1541491Y-8421246D02*
X1541491Y-8478389D01*
X1541491Y-8478389D02*
X1531967Y-8497436D01*
X1531967Y-8497436D02*
X1522443Y-8506960D01*
X1522443Y-8506960D02*
X1503396Y-8516484D01*
X1503396Y-8516484D02*
X1465301Y-8516484D01*
X1465301Y-8516484D02*
X1446253Y-8506960D01*
X1627205Y-8497436D02*
X1636729Y-8506960D01*
X1636729Y-8506960D02*
X1627205Y-8516484D01*
X1627205Y-8516484D02*
X1617682Y-8506960D01*
X1617682Y-8506960D02*
X1627205Y-8497436D01*
X1627205Y-8497436D02*
X1627205Y-8516484D01*
X1627205Y-8392674D02*
X1636729Y-8402198D01*
X1636729Y-8402198D02*
X1627205Y-8411722D01*
X1627205Y-8411722D02*
X1617682Y-8402198D01*
X1617682Y-8402198D02*
X1627205Y-8392674D01*
X1627205Y-8392674D02*
X1627205Y-8411722D01*
D10*
X-45000Y-8825000D02*
X-5000Y-8865000D01*
X-5000Y-8825000D02*
X-45000Y-8865000D01*
D11*
X293872Y-8736484D02*
X312920Y-8736484D01*
X312920Y-8736484D02*
X331967Y-8746008D01*
X331967Y-8746008D02*
X341491Y-8755531D01*
X341491Y-8755531D02*
X351015Y-8774579D01*
X351015Y-8774579D02*
X360539Y-8812674D01*
X360539Y-8812674D02*
X360539Y-8860293D01*
X360539Y-8860293D02*
X351015Y-8898389D01*
X351015Y-8898389D02*
X341491Y-8917436D01*
X341491Y-8917436D02*
X331967Y-8926960D01*
X331967Y-8926960D02*
X312920Y-8936484D01*
X312920Y-8936484D02*
X293872Y-8936484D01*
X293872Y-8936484D02*
X274824Y-8926960D01*
X274824Y-8926960D02*
X265301Y-8917436D01*
X265301Y-8917436D02*
X255777Y-8898389D01*
X255777Y-8898389D02*
X246253Y-8860293D01*
X246253Y-8860293D02*
X246253Y-8812674D01*
X246253Y-8812674D02*
X255777Y-8774579D01*
X255777Y-8774579D02*
X265301Y-8755531D01*
X265301Y-8755531D02*
X274824Y-8746008D01*
X274824Y-8746008D02*
X293872Y-8736484D01*
X446253Y-8917436D02*
X455777Y-8926960D01*
X455777Y-8926960D02*
X446253Y-8936484D01*
X446253Y-8936484D02*
X436729Y-8926960D01*
X436729Y-8926960D02*
X446253Y-8917436D01*
X446253Y-8917436D02*
X446253Y-8936484D01*
X627205Y-8803150D02*
X627205Y-8936484D01*
X579586Y-8726960D02*
X531967Y-8869817D01*
X531967Y-8869817D02*
X655777Y-8869817D01*
X770062Y-8736484D02*
X789110Y-8736484D01*
X789110Y-8736484D02*
X808158Y-8746008D01*
X808158Y-8746008D02*
X817682Y-8755531D01*
X817682Y-8755531D02*
X827205Y-8774579D01*
X827205Y-8774579D02*
X836729Y-8812674D01*
X836729Y-8812674D02*
X836729Y-8860293D01*
X836729Y-8860293D02*
X827205Y-8898389D01*
X827205Y-8898389D02*
X817682Y-8917436D01*
X817682Y-8917436D02*
X808158Y-8926960D01*
X808158Y-8926960D02*
X789110Y-8936484D01*
X789110Y-8936484D02*
X770062Y-8936484D01*
X770062Y-8936484D02*
X751015Y-8926960D01*
X751015Y-8926960D02*
X741491Y-8917436D01*
X741491Y-8917436D02*
X731967Y-8898389D01*
X731967Y-8898389D02*
X722443Y-8860293D01*
X722443Y-8860293D02*
X722443Y-8812674D01*
X722443Y-8812674D02*
X731967Y-8774579D01*
X731967Y-8774579D02*
X741491Y-8755531D01*
X741491Y-8755531D02*
X751015Y-8746008D01*
X751015Y-8746008D02*
X770062Y-8736484D01*
X960539Y-8736484D02*
X979586Y-8736484D01*
X979586Y-8736484D02*
X998634Y-8746008D01*
X998634Y-8746008D02*
X1008158Y-8755531D01*
X1008158Y-8755531D02*
X1017682Y-8774579D01*
X1017682Y-8774579D02*
X1027205Y-8812674D01*
X1027205Y-8812674D02*
X1027205Y-8860293D01*
X1027205Y-8860293D02*
X1017682Y-8898389D01*
X1017682Y-8898389D02*
X1008158Y-8917436D01*
X1008158Y-8917436D02*
X998634Y-8926960D01*
X998634Y-8926960D02*
X979586Y-8936484D01*
X979586Y-8936484D02*
X960539Y-8936484D01*
X960539Y-8936484D02*
X941491Y-8926960D01*
X941491Y-8926960D02*
X931967Y-8917436D01*
X931967Y-8917436D02*
X922443Y-8898389D01*
X922443Y-8898389D02*
X912920Y-8860293D01*
X912920Y-8860293D02*
X912920Y-8812674D01*
X912920Y-8812674D02*
X922443Y-8774579D01*
X922443Y-8774579D02*
X931967Y-8755531D01*
X931967Y-8755531D02*
X941491Y-8746008D01*
X941491Y-8746008D02*
X960539Y-8736484D01*
X1112920Y-8936484D02*
X1112920Y-8803150D01*
X1112920Y-8822198D02*
X1122444Y-8812674D01*
X1122444Y-8812674D02*
X1141491Y-8803150D01*
X1141491Y-8803150D02*
X1170063Y-8803150D01*
X1170063Y-8803150D02*
X1189110Y-8812674D01*
X1189110Y-8812674D02*
X1198634Y-8831722D01*
X1198634Y-8831722D02*
X1198634Y-8936484D01*
X1198634Y-8831722D02*
X1208158Y-8812674D01*
X1208158Y-8812674D02*
X1227205Y-8803150D01*
X1227205Y-8803150D02*
X1255777Y-8803150D01*
X1255777Y-8803150D02*
X1274825Y-8812674D01*
X1274825Y-8812674D02*
X1284348Y-8831722D01*
X1284348Y-8831722D02*
X1284348Y-8936484D01*
X1379586Y-8936484D02*
X1379586Y-8803150D01*
X1379586Y-8822198D02*
X1389110Y-8812674D01*
X1389110Y-8812674D02*
X1408158Y-8803150D01*
X1408158Y-8803150D02*
X1436729Y-8803150D01*
X1436729Y-8803150D02*
X1455777Y-8812674D01*
X1455777Y-8812674D02*
X1465301Y-8831722D01*
X1465301Y-8831722D02*
X1465301Y-8936484D01*
X1465301Y-8831722D02*
X1474824Y-8812674D01*
X1474824Y-8812674D02*
X1493872Y-8803150D01*
X1493872Y-8803150D02*
X1522443Y-8803150D01*
X1522443Y-8803150D02*
X1541491Y-8812674D01*
X1541491Y-8812674D02*
X1551015Y-8831722D01*
X1551015Y-8831722D02*
X1551015Y-8936484D01*
X1941491Y-8726960D02*
X1770063Y-8984103D01*
X2198634Y-8736484D02*
X2217682Y-8736484D01*
X2217682Y-8736484D02*
X2236729Y-8746008D01*
X2236729Y-8746008D02*
X2246253Y-8755531D01*
X2246253Y-8755531D02*
X2255777Y-8774579D01*
X2255777Y-8774579D02*
X2265301Y-8812674D01*
X2265301Y-8812674D02*
X2265301Y-8860293D01*
X2265301Y-8860293D02*
X2255777Y-8898389D01*
X2255777Y-8898389D02*
X2246253Y-8917436D01*
X2246253Y-8917436D02*
X2236729Y-8926960D01*
X2236729Y-8926960D02*
X2217682Y-8936484D01*
X2217682Y-8936484D02*
X2198634Y-8936484D01*
X2198634Y-8936484D02*
X2179587Y-8926960D01*
X2179587Y-8926960D02*
X2170063Y-8917436D01*
X2170063Y-8917436D02*
X2160539Y-8898389D01*
X2160539Y-8898389D02*
X2151015Y-8860293D01*
X2151015Y-8860293D02*
X2151015Y-8812674D01*
X2151015Y-8812674D02*
X2160539Y-8774579D01*
X2160539Y-8774579D02*
X2170063Y-8755531D01*
X2170063Y-8755531D02*
X2179587Y-8746008D01*
X2179587Y-8746008D02*
X2198634Y-8736484D01*
X2351015Y-8917436D02*
X2360539Y-8926960D01*
X2360539Y-8926960D02*
X2351015Y-8936484D01*
X2351015Y-8936484D02*
X2341491Y-8926960D01*
X2341491Y-8926960D02*
X2351015Y-8917436D01*
X2351015Y-8917436D02*
X2351015Y-8936484D01*
X2484348Y-8736484D02*
X2503396Y-8736484D01*
X2503396Y-8736484D02*
X2522444Y-8746008D01*
X2522444Y-8746008D02*
X2531968Y-8755531D01*
X2531968Y-8755531D02*
X2541491Y-8774579D01*
X2541491Y-8774579D02*
X2551015Y-8812674D01*
X2551015Y-8812674D02*
X2551015Y-8860293D01*
X2551015Y-8860293D02*
X2541491Y-8898389D01*
X2541491Y-8898389D02*
X2531968Y-8917436D01*
X2531968Y-8917436D02*
X2522444Y-8926960D01*
X2522444Y-8926960D02*
X2503396Y-8936484D01*
X2503396Y-8936484D02*
X2484348Y-8936484D01*
X2484348Y-8936484D02*
X2465301Y-8926960D01*
X2465301Y-8926960D02*
X2455777Y-8917436D01*
X2455777Y-8917436D02*
X2446253Y-8898389D01*
X2446253Y-8898389D02*
X2436729Y-8860293D01*
X2436729Y-8860293D02*
X2436729Y-8812674D01*
X2436729Y-8812674D02*
X2446253Y-8774579D01*
X2446253Y-8774579D02*
X2455777Y-8755531D01*
X2455777Y-8755531D02*
X2465301Y-8746008D01*
X2465301Y-8746008D02*
X2484348Y-8736484D01*
X2741491Y-8936484D02*
X2627206Y-8936484D01*
X2684348Y-8936484D02*
X2684348Y-8736484D01*
X2684348Y-8736484D02*
X2665301Y-8765055D01*
X2665301Y-8765055D02*
X2646253Y-8784103D01*
X2646253Y-8784103D02*
X2627206Y-8793627D01*
X2922444Y-8736484D02*
X2827206Y-8736484D01*
X2827206Y-8736484D02*
X2817682Y-8831722D01*
X2817682Y-8831722D02*
X2827206Y-8822198D01*
X2827206Y-8822198D02*
X2846253Y-8812674D01*
X2846253Y-8812674D02*
X2893872Y-8812674D01*
X2893872Y-8812674D02*
X2912920Y-8822198D01*
X2912920Y-8822198D02*
X2922444Y-8831722D01*
X2922444Y-8831722D02*
X2931967Y-8850770D01*
X2931967Y-8850770D02*
X2931967Y-8898389D01*
X2931967Y-8898389D02*
X2922444Y-8917436D01*
X2922444Y-8917436D02*
X2912920Y-8926960D01*
X2912920Y-8926960D02*
X2893872Y-8936484D01*
X2893872Y-8936484D02*
X2846253Y-8936484D01*
X2846253Y-8936484D02*
X2827206Y-8926960D01*
X2827206Y-8926960D02*
X2817682Y-8917436D01*
X2998634Y-8736484D02*
X3131967Y-8736484D01*
X3131967Y-8736484D02*
X3046253Y-8936484D01*
X3198634Y-8736484D02*
X3198634Y-8774579D01*
X3274825Y-8736484D02*
X3274825Y-8774579D01*
X3570063Y-9012674D02*
X3560539Y-9003150D01*
X3560539Y-9003150D02*
X3541491Y-8974579D01*
X3541491Y-8974579D02*
X3531968Y-8955531D01*
X3531968Y-8955531D02*
X3522444Y-8926960D01*
X3522444Y-8926960D02*
X3512920Y-8879341D01*
X3512920Y-8879341D02*
X3512920Y-8841246D01*
X3512920Y-8841246D02*
X3522444Y-8793627D01*
X3522444Y-8793627D02*
X3531968Y-8765055D01*
X3531968Y-8765055D02*
X3541491Y-8746008D01*
X3541491Y-8746008D02*
X3560539Y-8717436D01*
X3560539Y-8717436D02*
X3570063Y-8707912D01*
X3731968Y-8803150D02*
X3731968Y-8936484D01*
X3684348Y-8726960D02*
X3636729Y-8869817D01*
X3636729Y-8869817D02*
X3760539Y-8869817D01*
X3989110Y-8936484D02*
X3989110Y-8736484D01*
X4074825Y-8936484D02*
X4074825Y-8831722D01*
X4074825Y-8831722D02*
X4065301Y-8812674D01*
X4065301Y-8812674D02*
X4046253Y-8803150D01*
X4046253Y-8803150D02*
X4017682Y-8803150D01*
X4017682Y-8803150D02*
X3998634Y-8812674D01*
X3998634Y-8812674D02*
X3989110Y-8822198D01*
X4198634Y-8936484D02*
X4179587Y-8926960D01*
X4179587Y-8926960D02*
X4170063Y-8917436D01*
X4170063Y-8917436D02*
X4160539Y-8898389D01*
X4160539Y-8898389D02*
X4160539Y-8841246D01*
X4160539Y-8841246D02*
X4170063Y-8822198D01*
X4170063Y-8822198D02*
X4179587Y-8812674D01*
X4179587Y-8812674D02*
X4198634Y-8803150D01*
X4198634Y-8803150D02*
X4227206Y-8803150D01*
X4227206Y-8803150D02*
X4246253Y-8812674D01*
X4246253Y-8812674D02*
X4255777Y-8822198D01*
X4255777Y-8822198D02*
X4265301Y-8841246D01*
X4265301Y-8841246D02*
X4265301Y-8898389D01*
X4265301Y-8898389D02*
X4255777Y-8917436D01*
X4255777Y-8917436D02*
X4246253Y-8926960D01*
X4246253Y-8926960D02*
X4227206Y-8936484D01*
X4227206Y-8936484D02*
X4198634Y-8936484D01*
X4379587Y-8936484D02*
X4360539Y-8926960D01*
X4360539Y-8926960D02*
X4351015Y-8907912D01*
X4351015Y-8907912D02*
X4351015Y-8736484D01*
X4531968Y-8926960D02*
X4512920Y-8936484D01*
X4512920Y-8936484D02*
X4474825Y-8936484D01*
X4474825Y-8936484D02*
X4455777Y-8926960D01*
X4455777Y-8926960D02*
X4446253Y-8907912D01*
X4446253Y-8907912D02*
X4446253Y-8831722D01*
X4446253Y-8831722D02*
X4455777Y-8812674D01*
X4455777Y-8812674D02*
X4474825Y-8803150D01*
X4474825Y-8803150D02*
X4512920Y-8803150D01*
X4512920Y-8803150D02*
X4531968Y-8812674D01*
X4531968Y-8812674D02*
X4541492Y-8831722D01*
X4541492Y-8831722D02*
X4541492Y-8850770D01*
X4541492Y-8850770D02*
X4446253Y-8869817D01*
X4617682Y-8926960D02*
X4636730Y-8936484D01*
X4636730Y-8936484D02*
X4674825Y-8936484D01*
X4674825Y-8936484D02*
X4693873Y-8926960D01*
X4693873Y-8926960D02*
X4703396Y-8907912D01*
X4703396Y-8907912D02*
X4703396Y-8898389D01*
X4703396Y-8898389D02*
X4693873Y-8879341D01*
X4693873Y-8879341D02*
X4674825Y-8869817D01*
X4674825Y-8869817D02*
X4646253Y-8869817D01*
X4646253Y-8869817D02*
X4627206Y-8860293D01*
X4627206Y-8860293D02*
X4617682Y-8841246D01*
X4617682Y-8841246D02*
X4617682Y-8831722D01*
X4617682Y-8831722D02*
X4627206Y-8812674D01*
X4627206Y-8812674D02*
X4646253Y-8803150D01*
X4646253Y-8803150D02*
X4674825Y-8803150D01*
X4674825Y-8803150D02*
X4693873Y-8812674D01*
X4770063Y-9012674D02*
X4779587Y-9003150D01*
X4779587Y-9003150D02*
X4798634Y-8974579D01*
X4798634Y-8974579D02*
X4808158Y-8955531D01*
X4808158Y-8955531D02*
X4817682Y-8926960D01*
X4817682Y-8926960D02*
X4827206Y-8879341D01*
X4827206Y-8879341D02*
X4827206Y-8841246D01*
X4827206Y-8841246D02*
X4817682Y-8793627D01*
X4817682Y-8793627D02*
X4808158Y-8765055D01*
X4808158Y-8765055D02*
X4798634Y-8746008D01*
X4798634Y-8746008D02*
X4779587Y-8717436D01*
X4779587Y-8717436D02*
X4770063Y-8707912D01*
D10*
X-5000Y-9109000D02*
G75*
G03*
X-85000Y-9109000I-40000J0D01*
G01*
X-85000Y-9109000D02*
G75*
G03*
X-5000Y-9109000I40000J0D01*
G01*
D11*
X293872Y-9000484D02*
X312920Y-9000484D01*
X312920Y-9000484D02*
X331967Y-9010008D01*
X331967Y-9010008D02*
X341491Y-9019531D01*
X341491Y-9019531D02*
X351015Y-9038579D01*
X351015Y-9038579D02*
X360539Y-9076674D01*
X360539Y-9076674D02*
X360539Y-9124293D01*
X360539Y-9124293D02*
X351015Y-9162389D01*
X351015Y-9162389D02*
X341491Y-9181436D01*
X341491Y-9181436D02*
X331967Y-9190960D01*
X331967Y-9190960D02*
X312920Y-9200484D01*
X312920Y-9200484D02*
X293872Y-9200484D01*
X293872Y-9200484D02*
X274824Y-9190960D01*
X274824Y-9190960D02*
X265301Y-9181436D01*
X265301Y-9181436D02*
X255777Y-9162389D01*
X255777Y-9162389D02*
X246253Y-9124293D01*
X246253Y-9124293D02*
X246253Y-9076674D01*
X246253Y-9076674D02*
X255777Y-9038579D01*
X255777Y-9038579D02*
X265301Y-9019531D01*
X265301Y-9019531D02*
X274824Y-9010008D01*
X274824Y-9010008D02*
X293872Y-9000484D01*
X446253Y-9181436D02*
X455777Y-9190960D01*
X455777Y-9190960D02*
X446253Y-9200484D01*
X446253Y-9200484D02*
X436729Y-9190960D01*
X436729Y-9190960D02*
X446253Y-9181436D01*
X446253Y-9181436D02*
X446253Y-9200484D01*
X570063Y-9086198D02*
X551015Y-9076674D01*
X551015Y-9076674D02*
X541491Y-9067150D01*
X541491Y-9067150D02*
X531967Y-9048103D01*
X531967Y-9048103D02*
X531967Y-9038579D01*
X531967Y-9038579D02*
X541491Y-9019531D01*
X541491Y-9019531D02*
X551015Y-9010008D01*
X551015Y-9010008D02*
X570063Y-9000484D01*
X570063Y-9000484D02*
X608158Y-9000484D01*
X608158Y-9000484D02*
X627205Y-9010008D01*
X627205Y-9010008D02*
X636729Y-9019531D01*
X636729Y-9019531D02*
X646253Y-9038579D01*
X646253Y-9038579D02*
X646253Y-9048103D01*
X646253Y-9048103D02*
X636729Y-9067150D01*
X636729Y-9067150D02*
X627205Y-9076674D01*
X627205Y-9076674D02*
X608158Y-9086198D01*
X608158Y-9086198D02*
X570063Y-9086198D01*
X570063Y-9086198D02*
X551015Y-9095722D01*
X551015Y-9095722D02*
X541491Y-9105246D01*
X541491Y-9105246D02*
X531967Y-9124293D01*
X531967Y-9124293D02*
X531967Y-9162389D01*
X531967Y-9162389D02*
X541491Y-9181436D01*
X541491Y-9181436D02*
X551015Y-9190960D01*
X551015Y-9190960D02*
X570063Y-9200484D01*
X570063Y-9200484D02*
X608158Y-9200484D01*
X608158Y-9200484D02*
X627205Y-9190960D01*
X627205Y-9190960D02*
X636729Y-9181436D01*
X636729Y-9181436D02*
X646253Y-9162389D01*
X646253Y-9162389D02*
X646253Y-9124293D01*
X646253Y-9124293D02*
X636729Y-9105246D01*
X636729Y-9105246D02*
X627205Y-9095722D01*
X627205Y-9095722D02*
X608158Y-9086198D01*
X770062Y-9000484D02*
X789110Y-9000484D01*
X789110Y-9000484D02*
X808158Y-9010008D01*
X808158Y-9010008D02*
X817682Y-9019531D01*
X817682Y-9019531D02*
X827205Y-9038579D01*
X827205Y-9038579D02*
X836729Y-9076674D01*
X836729Y-9076674D02*
X836729Y-9124293D01*
X836729Y-9124293D02*
X827205Y-9162389D01*
X827205Y-9162389D02*
X817682Y-9181436D01*
X817682Y-9181436D02*
X808158Y-9190960D01*
X808158Y-9190960D02*
X789110Y-9200484D01*
X789110Y-9200484D02*
X770062Y-9200484D01*
X770062Y-9200484D02*
X751015Y-9190960D01*
X751015Y-9190960D02*
X741491Y-9181436D01*
X741491Y-9181436D02*
X731967Y-9162389D01*
X731967Y-9162389D02*
X722443Y-9124293D01*
X722443Y-9124293D02*
X722443Y-9076674D01*
X722443Y-9076674D02*
X731967Y-9038579D01*
X731967Y-9038579D02*
X741491Y-9019531D01*
X741491Y-9019531D02*
X751015Y-9010008D01*
X751015Y-9010008D02*
X770062Y-9000484D01*
X960539Y-9000484D02*
X979586Y-9000484D01*
X979586Y-9000484D02*
X998634Y-9010008D01*
X998634Y-9010008D02*
X1008158Y-9019531D01*
X1008158Y-9019531D02*
X1017682Y-9038579D01*
X1017682Y-9038579D02*
X1027205Y-9076674D01*
X1027205Y-9076674D02*
X1027205Y-9124293D01*
X1027205Y-9124293D02*
X1017682Y-9162389D01*
X1017682Y-9162389D02*
X1008158Y-9181436D01*
X1008158Y-9181436D02*
X998634Y-9190960D01*
X998634Y-9190960D02*
X979586Y-9200484D01*
X979586Y-9200484D02*
X960539Y-9200484D01*
X960539Y-9200484D02*
X941491Y-9190960D01*
X941491Y-9190960D02*
X931967Y-9181436D01*
X931967Y-9181436D02*
X922443Y-9162389D01*
X922443Y-9162389D02*
X912920Y-9124293D01*
X912920Y-9124293D02*
X912920Y-9076674D01*
X912920Y-9076674D02*
X922443Y-9038579D01*
X922443Y-9038579D02*
X931967Y-9019531D01*
X931967Y-9019531D02*
X941491Y-9010008D01*
X941491Y-9010008D02*
X960539Y-9000484D01*
X1112920Y-9200484D02*
X1112920Y-9067150D01*
X1112920Y-9086198D02*
X1122444Y-9076674D01*
X1122444Y-9076674D02*
X1141491Y-9067150D01*
X1141491Y-9067150D02*
X1170063Y-9067150D01*
X1170063Y-9067150D02*
X1189110Y-9076674D01*
X1189110Y-9076674D02*
X1198634Y-9095722D01*
X1198634Y-9095722D02*
X1198634Y-9200484D01*
X1198634Y-9095722D02*
X1208158Y-9076674D01*
X1208158Y-9076674D02*
X1227205Y-9067150D01*
X1227205Y-9067150D02*
X1255777Y-9067150D01*
X1255777Y-9067150D02*
X1274825Y-9076674D01*
X1274825Y-9076674D02*
X1284348Y-9095722D01*
X1284348Y-9095722D02*
X1284348Y-9200484D01*
X1379586Y-9200484D02*
X1379586Y-9067150D01*
X1379586Y-9086198D02*
X1389110Y-9076674D01*
X1389110Y-9076674D02*
X1408158Y-9067150D01*
X1408158Y-9067150D02*
X1436729Y-9067150D01*
X1436729Y-9067150D02*
X1455777Y-9076674D01*
X1455777Y-9076674D02*
X1465301Y-9095722D01*
X1465301Y-9095722D02*
X1465301Y-9200484D01*
X1465301Y-9095722D02*
X1474824Y-9076674D01*
X1474824Y-9076674D02*
X1493872Y-9067150D01*
X1493872Y-9067150D02*
X1522443Y-9067150D01*
X1522443Y-9067150D02*
X1541491Y-9076674D01*
X1541491Y-9076674D02*
X1551015Y-9095722D01*
X1551015Y-9095722D02*
X1551015Y-9200484D01*
X1941491Y-8990960D02*
X1770063Y-9248103D01*
X2198634Y-9000484D02*
X2217682Y-9000484D01*
X2217682Y-9000484D02*
X2236729Y-9010008D01*
X2236729Y-9010008D02*
X2246253Y-9019531D01*
X2246253Y-9019531D02*
X2255777Y-9038579D01*
X2255777Y-9038579D02*
X2265301Y-9076674D01*
X2265301Y-9076674D02*
X2265301Y-9124293D01*
X2265301Y-9124293D02*
X2255777Y-9162389D01*
X2255777Y-9162389D02*
X2246253Y-9181436D01*
X2246253Y-9181436D02*
X2236729Y-9190960D01*
X2236729Y-9190960D02*
X2217682Y-9200484D01*
X2217682Y-9200484D02*
X2198634Y-9200484D01*
X2198634Y-9200484D02*
X2179587Y-9190960D01*
X2179587Y-9190960D02*
X2170063Y-9181436D01*
X2170063Y-9181436D02*
X2160539Y-9162389D01*
X2160539Y-9162389D02*
X2151015Y-9124293D01*
X2151015Y-9124293D02*
X2151015Y-9076674D01*
X2151015Y-9076674D02*
X2160539Y-9038579D01*
X2160539Y-9038579D02*
X2170063Y-9019531D01*
X2170063Y-9019531D02*
X2179587Y-9010008D01*
X2179587Y-9010008D02*
X2198634Y-9000484D01*
X2351015Y-9181436D02*
X2360539Y-9190960D01*
X2360539Y-9190960D02*
X2351015Y-9200484D01*
X2351015Y-9200484D02*
X2341491Y-9190960D01*
X2341491Y-9190960D02*
X2351015Y-9181436D01*
X2351015Y-9181436D02*
X2351015Y-9200484D01*
X2484348Y-9000484D02*
X2503396Y-9000484D01*
X2503396Y-9000484D02*
X2522444Y-9010008D01*
X2522444Y-9010008D02*
X2531968Y-9019531D01*
X2531968Y-9019531D02*
X2541491Y-9038579D01*
X2541491Y-9038579D02*
X2551015Y-9076674D01*
X2551015Y-9076674D02*
X2551015Y-9124293D01*
X2551015Y-9124293D02*
X2541491Y-9162389D01*
X2541491Y-9162389D02*
X2531968Y-9181436D01*
X2531968Y-9181436D02*
X2522444Y-9190960D01*
X2522444Y-9190960D02*
X2503396Y-9200484D01*
X2503396Y-9200484D02*
X2484348Y-9200484D01*
X2484348Y-9200484D02*
X2465301Y-9190960D01*
X2465301Y-9190960D02*
X2455777Y-9181436D01*
X2455777Y-9181436D02*
X2446253Y-9162389D01*
X2446253Y-9162389D02*
X2436729Y-9124293D01*
X2436729Y-9124293D02*
X2436729Y-9076674D01*
X2436729Y-9076674D02*
X2446253Y-9038579D01*
X2446253Y-9038579D02*
X2455777Y-9019531D01*
X2455777Y-9019531D02*
X2465301Y-9010008D01*
X2465301Y-9010008D02*
X2484348Y-9000484D01*
X2617682Y-9000484D02*
X2741491Y-9000484D01*
X2741491Y-9000484D02*
X2674825Y-9076674D01*
X2674825Y-9076674D02*
X2703396Y-9076674D01*
X2703396Y-9076674D02*
X2722444Y-9086198D01*
X2722444Y-9086198D02*
X2731968Y-9095722D01*
X2731968Y-9095722D02*
X2741491Y-9114770D01*
X2741491Y-9114770D02*
X2741491Y-9162389D01*
X2741491Y-9162389D02*
X2731968Y-9181436D01*
X2731968Y-9181436D02*
X2722444Y-9190960D01*
X2722444Y-9190960D02*
X2703396Y-9200484D01*
X2703396Y-9200484D02*
X2646253Y-9200484D01*
X2646253Y-9200484D02*
X2627206Y-9190960D01*
X2627206Y-9190960D02*
X2617682Y-9181436D01*
X2931967Y-9200484D02*
X2817682Y-9200484D01*
X2874825Y-9200484D02*
X2874825Y-9000484D01*
X2874825Y-9000484D02*
X2855777Y-9029055D01*
X2855777Y-9029055D02*
X2836729Y-9048103D01*
X2836729Y-9048103D02*
X2817682Y-9057627D01*
X3112920Y-9000484D02*
X3017682Y-9000484D01*
X3017682Y-9000484D02*
X3008158Y-9095722D01*
X3008158Y-9095722D02*
X3017682Y-9086198D01*
X3017682Y-9086198D02*
X3036729Y-9076674D01*
X3036729Y-9076674D02*
X3084348Y-9076674D01*
X3084348Y-9076674D02*
X3103396Y-9086198D01*
X3103396Y-9086198D02*
X3112920Y-9095722D01*
X3112920Y-9095722D02*
X3122444Y-9114770D01*
X3122444Y-9114770D02*
X3122444Y-9162389D01*
X3122444Y-9162389D02*
X3112920Y-9181436D01*
X3112920Y-9181436D02*
X3103396Y-9190960D01*
X3103396Y-9190960D02*
X3084348Y-9200484D01*
X3084348Y-9200484D02*
X3036729Y-9200484D01*
X3036729Y-9200484D02*
X3017682Y-9190960D01*
X3017682Y-9190960D02*
X3008158Y-9181436D01*
X3198634Y-9000484D02*
X3198634Y-9038579D01*
X3274825Y-9000484D02*
X3274825Y-9038579D01*
X3570063Y-9276674D02*
X3560539Y-9267150D01*
X3560539Y-9267150D02*
X3541491Y-9238579D01*
X3541491Y-9238579D02*
X3531968Y-9219531D01*
X3531968Y-9219531D02*
X3522444Y-9190960D01*
X3522444Y-9190960D02*
X3512920Y-9143341D01*
X3512920Y-9143341D02*
X3512920Y-9105246D01*
X3512920Y-9105246D02*
X3522444Y-9057627D01*
X3522444Y-9057627D02*
X3531968Y-9029055D01*
X3531968Y-9029055D02*
X3541491Y-9010008D01*
X3541491Y-9010008D02*
X3560539Y-8981436D01*
X3560539Y-8981436D02*
X3570063Y-8971912D01*
X3741491Y-9000484D02*
X3646253Y-9000484D01*
X3646253Y-9000484D02*
X3636729Y-9095722D01*
X3636729Y-9095722D02*
X3646253Y-9086198D01*
X3646253Y-9086198D02*
X3665301Y-9076674D01*
X3665301Y-9076674D02*
X3712920Y-9076674D01*
X3712920Y-9076674D02*
X3731968Y-9086198D01*
X3731968Y-9086198D02*
X3741491Y-9095722D01*
X3741491Y-9095722D02*
X3751015Y-9114770D01*
X3751015Y-9114770D02*
X3751015Y-9162389D01*
X3751015Y-9162389D02*
X3741491Y-9181436D01*
X3741491Y-9181436D02*
X3731968Y-9190960D01*
X3731968Y-9190960D02*
X3712920Y-9200484D01*
X3712920Y-9200484D02*
X3665301Y-9200484D01*
X3665301Y-9200484D02*
X3646253Y-9190960D01*
X3646253Y-9190960D02*
X3636729Y-9181436D01*
X3865301Y-9086198D02*
X3846253Y-9076674D01*
X3846253Y-9076674D02*
X3836729Y-9067150D01*
X3836729Y-9067150D02*
X3827206Y-9048103D01*
X3827206Y-9048103D02*
X3827206Y-9038579D01*
X3827206Y-9038579D02*
X3836729Y-9019531D01*
X3836729Y-9019531D02*
X3846253Y-9010008D01*
X3846253Y-9010008D02*
X3865301Y-9000484D01*
X3865301Y-9000484D02*
X3903396Y-9000484D01*
X3903396Y-9000484D02*
X3922444Y-9010008D01*
X3922444Y-9010008D02*
X3931968Y-9019531D01*
X3931968Y-9019531D02*
X3941491Y-9038579D01*
X3941491Y-9038579D02*
X3941491Y-9048103D01*
X3941491Y-9048103D02*
X3931968Y-9067150D01*
X3931968Y-9067150D02*
X3922444Y-9076674D01*
X3922444Y-9076674D02*
X3903396Y-9086198D01*
X3903396Y-9086198D02*
X3865301Y-9086198D01*
X3865301Y-9086198D02*
X3846253Y-9095722D01*
X3846253Y-9095722D02*
X3836729Y-9105246D01*
X3836729Y-9105246D02*
X3827206Y-9124293D01*
X3827206Y-9124293D02*
X3827206Y-9162389D01*
X3827206Y-9162389D02*
X3836729Y-9181436D01*
X3836729Y-9181436D02*
X3846253Y-9190960D01*
X3846253Y-9190960D02*
X3865301Y-9200484D01*
X3865301Y-9200484D02*
X3903396Y-9200484D01*
X3903396Y-9200484D02*
X3922444Y-9190960D01*
X3922444Y-9190960D02*
X3931968Y-9181436D01*
X3931968Y-9181436D02*
X3941491Y-9162389D01*
X3941491Y-9162389D02*
X3941491Y-9124293D01*
X3941491Y-9124293D02*
X3931968Y-9105246D01*
X3931968Y-9105246D02*
X3922444Y-9095722D01*
X3922444Y-9095722D02*
X3903396Y-9086198D01*
X4179587Y-9200484D02*
X4179587Y-9000484D01*
X4265301Y-9200484D02*
X4265301Y-9095722D01*
X4265301Y-9095722D02*
X4255777Y-9076674D01*
X4255777Y-9076674D02*
X4236730Y-9067150D01*
X4236730Y-9067150D02*
X4208158Y-9067150D01*
X4208158Y-9067150D02*
X4189110Y-9076674D01*
X4189110Y-9076674D02*
X4179587Y-9086198D01*
X4389111Y-9200484D02*
X4370063Y-9190960D01*
X4370063Y-9190960D02*
X4360539Y-9181436D01*
X4360539Y-9181436D02*
X4351015Y-9162389D01*
X4351015Y-9162389D02*
X4351015Y-9105246D01*
X4351015Y-9105246D02*
X4360539Y-9086198D01*
X4360539Y-9086198D02*
X4370063Y-9076674D01*
X4370063Y-9076674D02*
X4389111Y-9067150D01*
X4389111Y-9067150D02*
X4417682Y-9067150D01*
X4417682Y-9067150D02*
X4436730Y-9076674D01*
X4436730Y-9076674D02*
X4446253Y-9086198D01*
X4446253Y-9086198D02*
X4455777Y-9105246D01*
X4455777Y-9105246D02*
X4455777Y-9162389D01*
X4455777Y-9162389D02*
X4446253Y-9181436D01*
X4446253Y-9181436D02*
X4436730Y-9190960D01*
X4436730Y-9190960D02*
X4417682Y-9200484D01*
X4417682Y-9200484D02*
X4389111Y-9200484D01*
X4570063Y-9200484D02*
X4551015Y-9190960D01*
X4551015Y-9190960D02*
X4541492Y-9171912D01*
X4541492Y-9171912D02*
X4541492Y-9000484D01*
X4722444Y-9190960D02*
X4703396Y-9200484D01*
X4703396Y-9200484D02*
X4665301Y-9200484D01*
X4665301Y-9200484D02*
X4646253Y-9190960D01*
X4646253Y-9190960D02*
X4636730Y-9171912D01*
X4636730Y-9171912D02*
X4636730Y-9095722D01*
X4636730Y-9095722D02*
X4646253Y-9076674D01*
X4646253Y-9076674D02*
X4665301Y-9067150D01*
X4665301Y-9067150D02*
X4703396Y-9067150D01*
X4703396Y-9067150D02*
X4722444Y-9076674D01*
X4722444Y-9076674D02*
X4731968Y-9095722D01*
X4731968Y-9095722D02*
X4731968Y-9114770D01*
X4731968Y-9114770D02*
X4636730Y-9133817D01*
X4808158Y-9190960D02*
X4827206Y-9200484D01*
X4827206Y-9200484D02*
X4865301Y-9200484D01*
X4865301Y-9200484D02*
X4884349Y-9190960D01*
X4884349Y-9190960D02*
X4893873Y-9171912D01*
X4893873Y-9171912D02*
X4893873Y-9162389D01*
X4893873Y-9162389D02*
X4884349Y-9143341D01*
X4884349Y-9143341D02*
X4865301Y-9133817D01*
X4865301Y-9133817D02*
X4836730Y-9133817D01*
X4836730Y-9133817D02*
X4817682Y-9124293D01*
X4817682Y-9124293D02*
X4808158Y-9105246D01*
X4808158Y-9105246D02*
X4808158Y-9095722D01*
X4808158Y-9095722D02*
X4817682Y-9076674D01*
X4817682Y-9076674D02*
X4836730Y-9067150D01*
X4836730Y-9067150D02*
X4865301Y-9067150D01*
X4865301Y-9067150D02*
X4884349Y-9076674D01*
X4960539Y-9276674D02*
X4970063Y-9267150D01*
X4970063Y-9267150D02*
X4989111Y-9238579D01*
X4989111Y-9238579D02*
X4998634Y-9219531D01*
X4998634Y-9219531D02*
X5008158Y-9190960D01*
X5008158Y-9190960D02*
X5017682Y-9143341D01*
X5017682Y-9143341D02*
X5017682Y-9105246D01*
X5017682Y-9105246D02*
X5008158Y-9057627D01*
X5008158Y-9057627D02*
X4998634Y-9029055D01*
X4998634Y-9029055D02*
X4989111Y-9010008D01*
X4989111Y-9010008D02*
X4970063Y-8981436D01*
X4970063Y-8981436D02*
X4960539Y-8971912D01*
D10*
X-55000Y-9323000D02*
X-55000Y-9423000D01*
X-105000Y-9373000D02*
X-5000Y-9373000D01*
D11*
X360539Y-9464484D02*
X246253Y-9464484D01*
X303396Y-9464484D02*
X303396Y-9264484D01*
X303396Y-9264484D02*
X284348Y-9293055D01*
X284348Y-9293055D02*
X265301Y-9312103D01*
X265301Y-9312103D02*
X246253Y-9321627D01*
X446253Y-9445436D02*
X455777Y-9454960D01*
X455777Y-9454960D02*
X446253Y-9464484D01*
X446253Y-9464484D02*
X436729Y-9454960D01*
X436729Y-9454960D02*
X446253Y-9445436D01*
X446253Y-9445436D02*
X446253Y-9464484D01*
X579586Y-9264484D02*
X598634Y-9264484D01*
X598634Y-9264484D02*
X617682Y-9274008D01*
X617682Y-9274008D02*
X627205Y-9283531D01*
X627205Y-9283531D02*
X636729Y-9302579D01*
X636729Y-9302579D02*
X646253Y-9340674D01*
X646253Y-9340674D02*
X646253Y-9388293D01*
X646253Y-9388293D02*
X636729Y-9426389D01*
X636729Y-9426389D02*
X627205Y-9445436D01*
X627205Y-9445436D02*
X617682Y-9454960D01*
X617682Y-9454960D02*
X598634Y-9464484D01*
X598634Y-9464484D02*
X579586Y-9464484D01*
X579586Y-9464484D02*
X560539Y-9454960D01*
X560539Y-9454960D02*
X551015Y-9445436D01*
X551015Y-9445436D02*
X541491Y-9426389D01*
X541491Y-9426389D02*
X531967Y-9388293D01*
X531967Y-9388293D02*
X531967Y-9340674D01*
X531967Y-9340674D02*
X541491Y-9302579D01*
X541491Y-9302579D02*
X551015Y-9283531D01*
X551015Y-9283531D02*
X560539Y-9274008D01*
X560539Y-9274008D02*
X579586Y-9264484D01*
X770062Y-9264484D02*
X789110Y-9264484D01*
X789110Y-9264484D02*
X808158Y-9274008D01*
X808158Y-9274008D02*
X817682Y-9283531D01*
X817682Y-9283531D02*
X827205Y-9302579D01*
X827205Y-9302579D02*
X836729Y-9340674D01*
X836729Y-9340674D02*
X836729Y-9388293D01*
X836729Y-9388293D02*
X827205Y-9426389D01*
X827205Y-9426389D02*
X817682Y-9445436D01*
X817682Y-9445436D02*
X808158Y-9454960D01*
X808158Y-9454960D02*
X789110Y-9464484D01*
X789110Y-9464484D02*
X770062Y-9464484D01*
X770062Y-9464484D02*
X751015Y-9454960D01*
X751015Y-9454960D02*
X741491Y-9445436D01*
X741491Y-9445436D02*
X731967Y-9426389D01*
X731967Y-9426389D02*
X722443Y-9388293D01*
X722443Y-9388293D02*
X722443Y-9340674D01*
X722443Y-9340674D02*
X731967Y-9302579D01*
X731967Y-9302579D02*
X741491Y-9283531D01*
X741491Y-9283531D02*
X751015Y-9274008D01*
X751015Y-9274008D02*
X770062Y-9264484D01*
X960539Y-9264484D02*
X979586Y-9264484D01*
X979586Y-9264484D02*
X998634Y-9274008D01*
X998634Y-9274008D02*
X1008158Y-9283531D01*
X1008158Y-9283531D02*
X1017682Y-9302579D01*
X1017682Y-9302579D02*
X1027205Y-9340674D01*
X1027205Y-9340674D02*
X1027205Y-9388293D01*
X1027205Y-9388293D02*
X1017682Y-9426389D01*
X1017682Y-9426389D02*
X1008158Y-9445436D01*
X1008158Y-9445436D02*
X998634Y-9454960D01*
X998634Y-9454960D02*
X979586Y-9464484D01*
X979586Y-9464484D02*
X960539Y-9464484D01*
X960539Y-9464484D02*
X941491Y-9454960D01*
X941491Y-9454960D02*
X931967Y-9445436D01*
X931967Y-9445436D02*
X922443Y-9426389D01*
X922443Y-9426389D02*
X912920Y-9388293D01*
X912920Y-9388293D02*
X912920Y-9340674D01*
X912920Y-9340674D02*
X922443Y-9302579D01*
X922443Y-9302579D02*
X931967Y-9283531D01*
X931967Y-9283531D02*
X941491Y-9274008D01*
X941491Y-9274008D02*
X960539Y-9264484D01*
X1112920Y-9464484D02*
X1112920Y-9331150D01*
X1112920Y-9350198D02*
X1122444Y-9340674D01*
X1122444Y-9340674D02*
X1141491Y-9331150D01*
X1141491Y-9331150D02*
X1170063Y-9331150D01*
X1170063Y-9331150D02*
X1189110Y-9340674D01*
X1189110Y-9340674D02*
X1198634Y-9359722D01*
X1198634Y-9359722D02*
X1198634Y-9464484D01*
X1198634Y-9359722D02*
X1208158Y-9340674D01*
X1208158Y-9340674D02*
X1227205Y-9331150D01*
X1227205Y-9331150D02*
X1255777Y-9331150D01*
X1255777Y-9331150D02*
X1274825Y-9340674D01*
X1274825Y-9340674D02*
X1284348Y-9359722D01*
X1284348Y-9359722D02*
X1284348Y-9464484D01*
X1379586Y-9464484D02*
X1379586Y-9331150D01*
X1379586Y-9350198D02*
X1389110Y-9340674D01*
X1389110Y-9340674D02*
X1408158Y-9331150D01*
X1408158Y-9331150D02*
X1436729Y-9331150D01*
X1436729Y-9331150D02*
X1455777Y-9340674D01*
X1455777Y-9340674D02*
X1465301Y-9359722D01*
X1465301Y-9359722D02*
X1465301Y-9464484D01*
X1465301Y-9359722D02*
X1474824Y-9340674D01*
X1474824Y-9340674D02*
X1493872Y-9331150D01*
X1493872Y-9331150D02*
X1522443Y-9331150D01*
X1522443Y-9331150D02*
X1541491Y-9340674D01*
X1541491Y-9340674D02*
X1551015Y-9359722D01*
X1551015Y-9359722D02*
X1551015Y-9464484D01*
X1941491Y-9254960D02*
X1770063Y-9512103D01*
X2198634Y-9264484D02*
X2217682Y-9264484D01*
X2217682Y-9264484D02*
X2236729Y-9274008D01*
X2236729Y-9274008D02*
X2246253Y-9283531D01*
X2246253Y-9283531D02*
X2255777Y-9302579D01*
X2255777Y-9302579D02*
X2265301Y-9340674D01*
X2265301Y-9340674D02*
X2265301Y-9388293D01*
X2265301Y-9388293D02*
X2255777Y-9426389D01*
X2255777Y-9426389D02*
X2246253Y-9445436D01*
X2246253Y-9445436D02*
X2236729Y-9454960D01*
X2236729Y-9454960D02*
X2217682Y-9464484D01*
X2217682Y-9464484D02*
X2198634Y-9464484D01*
X2198634Y-9464484D02*
X2179587Y-9454960D01*
X2179587Y-9454960D02*
X2170063Y-9445436D01*
X2170063Y-9445436D02*
X2160539Y-9426389D01*
X2160539Y-9426389D02*
X2151015Y-9388293D01*
X2151015Y-9388293D02*
X2151015Y-9340674D01*
X2151015Y-9340674D02*
X2160539Y-9302579D01*
X2160539Y-9302579D02*
X2170063Y-9283531D01*
X2170063Y-9283531D02*
X2179587Y-9274008D01*
X2179587Y-9274008D02*
X2198634Y-9264484D01*
X2351015Y-9445436D02*
X2360539Y-9454960D01*
X2360539Y-9454960D02*
X2351015Y-9464484D01*
X2351015Y-9464484D02*
X2341491Y-9454960D01*
X2341491Y-9454960D02*
X2351015Y-9445436D01*
X2351015Y-9445436D02*
X2351015Y-9464484D01*
X2484348Y-9264484D02*
X2503396Y-9264484D01*
X2503396Y-9264484D02*
X2522444Y-9274008D01*
X2522444Y-9274008D02*
X2531968Y-9283531D01*
X2531968Y-9283531D02*
X2541491Y-9302579D01*
X2541491Y-9302579D02*
X2551015Y-9340674D01*
X2551015Y-9340674D02*
X2551015Y-9388293D01*
X2551015Y-9388293D02*
X2541491Y-9426389D01*
X2541491Y-9426389D02*
X2531968Y-9445436D01*
X2531968Y-9445436D02*
X2522444Y-9454960D01*
X2522444Y-9454960D02*
X2503396Y-9464484D01*
X2503396Y-9464484D02*
X2484348Y-9464484D01*
X2484348Y-9464484D02*
X2465301Y-9454960D01*
X2465301Y-9454960D02*
X2455777Y-9445436D01*
X2455777Y-9445436D02*
X2446253Y-9426389D01*
X2446253Y-9426389D02*
X2436729Y-9388293D01*
X2436729Y-9388293D02*
X2436729Y-9340674D01*
X2436729Y-9340674D02*
X2446253Y-9302579D01*
X2446253Y-9302579D02*
X2455777Y-9283531D01*
X2455777Y-9283531D02*
X2465301Y-9274008D01*
X2465301Y-9274008D02*
X2484348Y-9264484D01*
X2617682Y-9264484D02*
X2741491Y-9264484D01*
X2741491Y-9264484D02*
X2674825Y-9340674D01*
X2674825Y-9340674D02*
X2703396Y-9340674D01*
X2703396Y-9340674D02*
X2722444Y-9350198D01*
X2722444Y-9350198D02*
X2731968Y-9359722D01*
X2731968Y-9359722D02*
X2741491Y-9378770D01*
X2741491Y-9378770D02*
X2741491Y-9426389D01*
X2741491Y-9426389D02*
X2731968Y-9445436D01*
X2731968Y-9445436D02*
X2722444Y-9454960D01*
X2722444Y-9454960D02*
X2703396Y-9464484D01*
X2703396Y-9464484D02*
X2646253Y-9464484D01*
X2646253Y-9464484D02*
X2627206Y-9454960D01*
X2627206Y-9454960D02*
X2617682Y-9445436D01*
X2836729Y-9464484D02*
X2874825Y-9464484D01*
X2874825Y-9464484D02*
X2893872Y-9454960D01*
X2893872Y-9454960D02*
X2903396Y-9445436D01*
X2903396Y-9445436D02*
X2922444Y-9416865D01*
X2922444Y-9416865D02*
X2931967Y-9378770D01*
X2931967Y-9378770D02*
X2931967Y-9302579D01*
X2931967Y-9302579D02*
X2922444Y-9283531D01*
X2922444Y-9283531D02*
X2912920Y-9274008D01*
X2912920Y-9274008D02*
X2893872Y-9264484D01*
X2893872Y-9264484D02*
X2855777Y-9264484D01*
X2855777Y-9264484D02*
X2836729Y-9274008D01*
X2836729Y-9274008D02*
X2827206Y-9283531D01*
X2827206Y-9283531D02*
X2817682Y-9302579D01*
X2817682Y-9302579D02*
X2817682Y-9350198D01*
X2817682Y-9350198D02*
X2827206Y-9369246D01*
X2827206Y-9369246D02*
X2836729Y-9378770D01*
X2836729Y-9378770D02*
X2855777Y-9388293D01*
X2855777Y-9388293D02*
X2893872Y-9388293D01*
X2893872Y-9388293D02*
X2912920Y-9378770D01*
X2912920Y-9378770D02*
X2922444Y-9369246D01*
X2922444Y-9369246D02*
X2931967Y-9350198D01*
X3103396Y-9331150D02*
X3103396Y-9464484D01*
X3055777Y-9254960D02*
X3008158Y-9397817D01*
X3008158Y-9397817D02*
X3131967Y-9397817D01*
X3198634Y-9264484D02*
X3198634Y-9302579D01*
X3274825Y-9264484D02*
X3274825Y-9302579D01*
X3570063Y-9540674D02*
X3560539Y-9531150D01*
X3560539Y-9531150D02*
X3541491Y-9502579D01*
X3541491Y-9502579D02*
X3531968Y-9483531D01*
X3531968Y-9483531D02*
X3522444Y-9454960D01*
X3522444Y-9454960D02*
X3512920Y-9407341D01*
X3512920Y-9407341D02*
X3512920Y-9369246D01*
X3512920Y-9369246D02*
X3522444Y-9321627D01*
X3522444Y-9321627D02*
X3531968Y-9293055D01*
X3531968Y-9293055D02*
X3541491Y-9274008D01*
X3541491Y-9274008D02*
X3560539Y-9245436D01*
X3560539Y-9245436D02*
X3570063Y-9235912D01*
X3731968Y-9331150D02*
X3731968Y-9464484D01*
X3684348Y-9254960D02*
X3636729Y-9397817D01*
X3636729Y-9397817D02*
X3760539Y-9397817D01*
X3931968Y-9264484D02*
X3836729Y-9264484D01*
X3836729Y-9264484D02*
X3827206Y-9359722D01*
X3827206Y-9359722D02*
X3836729Y-9350198D01*
X3836729Y-9350198D02*
X3855777Y-9340674D01*
X3855777Y-9340674D02*
X3903396Y-9340674D01*
X3903396Y-9340674D02*
X3922444Y-9350198D01*
X3922444Y-9350198D02*
X3931968Y-9359722D01*
X3931968Y-9359722D02*
X3941491Y-9378770D01*
X3941491Y-9378770D02*
X3941491Y-9426389D01*
X3941491Y-9426389D02*
X3931968Y-9445436D01*
X3931968Y-9445436D02*
X3922444Y-9454960D01*
X3922444Y-9454960D02*
X3903396Y-9464484D01*
X3903396Y-9464484D02*
X3855777Y-9464484D01*
X3855777Y-9464484D02*
X3836729Y-9454960D01*
X3836729Y-9454960D02*
X3827206Y-9445436D01*
X4179587Y-9464484D02*
X4179587Y-9264484D01*
X4265301Y-9464484D02*
X4265301Y-9359722D01*
X4265301Y-9359722D02*
X4255777Y-9340674D01*
X4255777Y-9340674D02*
X4236730Y-9331150D01*
X4236730Y-9331150D02*
X4208158Y-9331150D01*
X4208158Y-9331150D02*
X4189110Y-9340674D01*
X4189110Y-9340674D02*
X4179587Y-9350198D01*
X4389111Y-9464484D02*
X4370063Y-9454960D01*
X4370063Y-9454960D02*
X4360539Y-9445436D01*
X4360539Y-9445436D02*
X4351015Y-9426389D01*
X4351015Y-9426389D02*
X4351015Y-9369246D01*
X4351015Y-9369246D02*
X4360539Y-9350198D01*
X4360539Y-9350198D02*
X4370063Y-9340674D01*
X4370063Y-9340674D02*
X4389111Y-9331150D01*
X4389111Y-9331150D02*
X4417682Y-9331150D01*
X4417682Y-9331150D02*
X4436730Y-9340674D01*
X4436730Y-9340674D02*
X4446253Y-9350198D01*
X4446253Y-9350198D02*
X4455777Y-9369246D01*
X4455777Y-9369246D02*
X4455777Y-9426389D01*
X4455777Y-9426389D02*
X4446253Y-9445436D01*
X4446253Y-9445436D02*
X4436730Y-9454960D01*
X4436730Y-9454960D02*
X4417682Y-9464484D01*
X4417682Y-9464484D02*
X4389111Y-9464484D01*
X4570063Y-9464484D02*
X4551015Y-9454960D01*
X4551015Y-9454960D02*
X4541492Y-9435912D01*
X4541492Y-9435912D02*
X4541492Y-9264484D01*
X4722444Y-9454960D02*
X4703396Y-9464484D01*
X4703396Y-9464484D02*
X4665301Y-9464484D01*
X4665301Y-9464484D02*
X4646253Y-9454960D01*
X4646253Y-9454960D02*
X4636730Y-9435912D01*
X4636730Y-9435912D02*
X4636730Y-9359722D01*
X4636730Y-9359722D02*
X4646253Y-9340674D01*
X4646253Y-9340674D02*
X4665301Y-9331150D01*
X4665301Y-9331150D02*
X4703396Y-9331150D01*
X4703396Y-9331150D02*
X4722444Y-9340674D01*
X4722444Y-9340674D02*
X4731968Y-9359722D01*
X4731968Y-9359722D02*
X4731968Y-9378770D01*
X4731968Y-9378770D02*
X4636730Y-9397817D01*
X4808158Y-9454960D02*
X4827206Y-9464484D01*
X4827206Y-9464484D02*
X4865301Y-9464484D01*
X4865301Y-9464484D02*
X4884349Y-9454960D01*
X4884349Y-9454960D02*
X4893873Y-9435912D01*
X4893873Y-9435912D02*
X4893873Y-9426389D01*
X4893873Y-9426389D02*
X4884349Y-9407341D01*
X4884349Y-9407341D02*
X4865301Y-9397817D01*
X4865301Y-9397817D02*
X4836730Y-9397817D01*
X4836730Y-9397817D02*
X4817682Y-9388293D01*
X4817682Y-9388293D02*
X4808158Y-9369246D01*
X4808158Y-9369246D02*
X4808158Y-9359722D01*
X4808158Y-9359722D02*
X4817682Y-9340674D01*
X4817682Y-9340674D02*
X4836730Y-9331150D01*
X4836730Y-9331150D02*
X4865301Y-9331150D01*
X4865301Y-9331150D02*
X4884349Y-9340674D01*
X4960539Y-9540674D02*
X4970063Y-9531150D01*
X4970063Y-9531150D02*
X4989111Y-9502579D01*
X4989111Y-9502579D02*
X4998634Y-9483531D01*
X4998634Y-9483531D02*
X5008158Y-9454960D01*
X5008158Y-9454960D02*
X5017682Y-9407341D01*
X5017682Y-9407341D02*
X5017682Y-9369246D01*
X5017682Y-9369246D02*
X5008158Y-9321627D01*
X5008158Y-9321627D02*
X4998634Y-9293055D01*
X4998634Y-9293055D02*
X4989111Y-9274008D01*
X4989111Y-9274008D02*
X4970063Y-9245436D01*
X4970063Y-9245436D02*
X4960539Y-9235912D01*
D12*
X-21109Y-9675891D02*
X-21109Y-9598109D01*
X-98891Y-9598109D01*
X-98891Y-9675891D01*
X-21109Y-9675891D01*
D11*
X360539Y-9728484D02*
X246253Y-9728484D01*
X303396Y-9728484D02*
X303396Y-9528484D01*
X303396Y-9528484D02*
X284348Y-9557055D01*
X284348Y-9557055D02*
X265301Y-9576103D01*
X265301Y-9576103D02*
X246253Y-9585627D01*
X446253Y-9709436D02*
X455777Y-9718960D01*
X455777Y-9718960D02*
X446253Y-9728484D01*
X446253Y-9728484D02*
X436729Y-9718960D01*
X436729Y-9718960D02*
X446253Y-9709436D01*
X446253Y-9709436D02*
X446253Y-9728484D01*
X646253Y-9728484D02*
X531967Y-9728484D01*
X589110Y-9728484D02*
X589110Y-9528484D01*
X589110Y-9528484D02*
X570063Y-9557055D01*
X570063Y-9557055D02*
X551015Y-9576103D01*
X551015Y-9576103D02*
X531967Y-9585627D01*
X770062Y-9528484D02*
X789110Y-9528484D01*
X789110Y-9528484D02*
X808158Y-9538008D01*
X808158Y-9538008D02*
X817682Y-9547531D01*
X817682Y-9547531D02*
X827205Y-9566579D01*
X827205Y-9566579D02*
X836729Y-9604674D01*
X836729Y-9604674D02*
X836729Y-9652293D01*
X836729Y-9652293D02*
X827205Y-9690389D01*
X827205Y-9690389D02*
X817682Y-9709436D01*
X817682Y-9709436D02*
X808158Y-9718960D01*
X808158Y-9718960D02*
X789110Y-9728484D01*
X789110Y-9728484D02*
X770062Y-9728484D01*
X770062Y-9728484D02*
X751015Y-9718960D01*
X751015Y-9718960D02*
X741491Y-9709436D01*
X741491Y-9709436D02*
X731967Y-9690389D01*
X731967Y-9690389D02*
X722443Y-9652293D01*
X722443Y-9652293D02*
X722443Y-9604674D01*
X722443Y-9604674D02*
X731967Y-9566579D01*
X731967Y-9566579D02*
X741491Y-9547531D01*
X741491Y-9547531D02*
X751015Y-9538008D01*
X751015Y-9538008D02*
X770062Y-9528484D01*
X960539Y-9528484D02*
X979586Y-9528484D01*
X979586Y-9528484D02*
X998634Y-9538008D01*
X998634Y-9538008D02*
X1008158Y-9547531D01*
X1008158Y-9547531D02*
X1017682Y-9566579D01*
X1017682Y-9566579D02*
X1027205Y-9604674D01*
X1027205Y-9604674D02*
X1027205Y-9652293D01*
X1027205Y-9652293D02*
X1017682Y-9690389D01*
X1017682Y-9690389D02*
X1008158Y-9709436D01*
X1008158Y-9709436D02*
X998634Y-9718960D01*
X998634Y-9718960D02*
X979586Y-9728484D01*
X979586Y-9728484D02*
X960539Y-9728484D01*
X960539Y-9728484D02*
X941491Y-9718960D01*
X941491Y-9718960D02*
X931967Y-9709436D01*
X931967Y-9709436D02*
X922443Y-9690389D01*
X922443Y-9690389D02*
X912920Y-9652293D01*
X912920Y-9652293D02*
X912920Y-9604674D01*
X912920Y-9604674D02*
X922443Y-9566579D01*
X922443Y-9566579D02*
X931967Y-9547531D01*
X931967Y-9547531D02*
X941491Y-9538008D01*
X941491Y-9538008D02*
X960539Y-9528484D01*
X1112920Y-9728484D02*
X1112920Y-9595150D01*
X1112920Y-9614198D02*
X1122444Y-9604674D01*
X1122444Y-9604674D02*
X1141491Y-9595150D01*
X1141491Y-9595150D02*
X1170063Y-9595150D01*
X1170063Y-9595150D02*
X1189110Y-9604674D01*
X1189110Y-9604674D02*
X1198634Y-9623722D01*
X1198634Y-9623722D02*
X1198634Y-9728484D01*
X1198634Y-9623722D02*
X1208158Y-9604674D01*
X1208158Y-9604674D02*
X1227205Y-9595150D01*
X1227205Y-9595150D02*
X1255777Y-9595150D01*
X1255777Y-9595150D02*
X1274825Y-9604674D01*
X1274825Y-9604674D02*
X1284348Y-9623722D01*
X1284348Y-9623722D02*
X1284348Y-9728484D01*
X1379586Y-9728484D02*
X1379586Y-9595150D01*
X1379586Y-9614198D02*
X1389110Y-9604674D01*
X1389110Y-9604674D02*
X1408158Y-9595150D01*
X1408158Y-9595150D02*
X1436729Y-9595150D01*
X1436729Y-9595150D02*
X1455777Y-9604674D01*
X1455777Y-9604674D02*
X1465301Y-9623722D01*
X1465301Y-9623722D02*
X1465301Y-9728484D01*
X1465301Y-9623722D02*
X1474824Y-9604674D01*
X1474824Y-9604674D02*
X1493872Y-9595150D01*
X1493872Y-9595150D02*
X1522443Y-9595150D01*
X1522443Y-9595150D02*
X1541491Y-9604674D01*
X1541491Y-9604674D02*
X1551015Y-9623722D01*
X1551015Y-9623722D02*
X1551015Y-9728484D01*
X1941491Y-9518960D02*
X1770063Y-9776103D01*
X2198634Y-9528484D02*
X2217682Y-9528484D01*
X2217682Y-9528484D02*
X2236729Y-9538008D01*
X2236729Y-9538008D02*
X2246253Y-9547531D01*
X2246253Y-9547531D02*
X2255777Y-9566579D01*
X2255777Y-9566579D02*
X2265301Y-9604674D01*
X2265301Y-9604674D02*
X2265301Y-9652293D01*
X2265301Y-9652293D02*
X2255777Y-9690389D01*
X2255777Y-9690389D02*
X2246253Y-9709436D01*
X2246253Y-9709436D02*
X2236729Y-9718960D01*
X2236729Y-9718960D02*
X2217682Y-9728484D01*
X2217682Y-9728484D02*
X2198634Y-9728484D01*
X2198634Y-9728484D02*
X2179587Y-9718960D01*
X2179587Y-9718960D02*
X2170063Y-9709436D01*
X2170063Y-9709436D02*
X2160539Y-9690389D01*
X2160539Y-9690389D02*
X2151015Y-9652293D01*
X2151015Y-9652293D02*
X2151015Y-9604674D01*
X2151015Y-9604674D02*
X2160539Y-9566579D01*
X2160539Y-9566579D02*
X2170063Y-9547531D01*
X2170063Y-9547531D02*
X2179587Y-9538008D01*
X2179587Y-9538008D02*
X2198634Y-9528484D01*
X2351015Y-9709436D02*
X2360539Y-9718960D01*
X2360539Y-9718960D02*
X2351015Y-9728484D01*
X2351015Y-9728484D02*
X2341491Y-9718960D01*
X2341491Y-9718960D02*
X2351015Y-9709436D01*
X2351015Y-9709436D02*
X2351015Y-9728484D01*
X2484348Y-9528484D02*
X2503396Y-9528484D01*
X2503396Y-9528484D02*
X2522444Y-9538008D01*
X2522444Y-9538008D02*
X2531968Y-9547531D01*
X2531968Y-9547531D02*
X2541491Y-9566579D01*
X2541491Y-9566579D02*
X2551015Y-9604674D01*
X2551015Y-9604674D02*
X2551015Y-9652293D01*
X2551015Y-9652293D02*
X2541491Y-9690389D01*
X2541491Y-9690389D02*
X2531968Y-9709436D01*
X2531968Y-9709436D02*
X2522444Y-9718960D01*
X2522444Y-9718960D02*
X2503396Y-9728484D01*
X2503396Y-9728484D02*
X2484348Y-9728484D01*
X2484348Y-9728484D02*
X2465301Y-9718960D01*
X2465301Y-9718960D02*
X2455777Y-9709436D01*
X2455777Y-9709436D02*
X2446253Y-9690389D01*
X2446253Y-9690389D02*
X2436729Y-9652293D01*
X2436729Y-9652293D02*
X2436729Y-9604674D01*
X2436729Y-9604674D02*
X2446253Y-9566579D01*
X2446253Y-9566579D02*
X2455777Y-9547531D01*
X2455777Y-9547531D02*
X2465301Y-9538008D01*
X2465301Y-9538008D02*
X2484348Y-9528484D01*
X2722444Y-9595150D02*
X2722444Y-9728484D01*
X2674825Y-9518960D02*
X2627206Y-9661817D01*
X2627206Y-9661817D02*
X2751015Y-9661817D01*
X2808158Y-9528484D02*
X2931967Y-9528484D01*
X2931967Y-9528484D02*
X2865301Y-9604674D01*
X2865301Y-9604674D02*
X2893872Y-9604674D01*
X2893872Y-9604674D02*
X2912920Y-9614198D01*
X2912920Y-9614198D02*
X2922444Y-9623722D01*
X2922444Y-9623722D02*
X2931967Y-9642770D01*
X2931967Y-9642770D02*
X2931967Y-9690389D01*
X2931967Y-9690389D02*
X2922444Y-9709436D01*
X2922444Y-9709436D02*
X2912920Y-9718960D01*
X2912920Y-9718960D02*
X2893872Y-9728484D01*
X2893872Y-9728484D02*
X2836729Y-9728484D01*
X2836729Y-9728484D02*
X2817682Y-9718960D01*
X2817682Y-9718960D02*
X2808158Y-9709436D01*
X2998634Y-9528484D02*
X3122444Y-9528484D01*
X3122444Y-9528484D02*
X3055777Y-9604674D01*
X3055777Y-9604674D02*
X3084348Y-9604674D01*
X3084348Y-9604674D02*
X3103396Y-9614198D01*
X3103396Y-9614198D02*
X3112920Y-9623722D01*
X3112920Y-9623722D02*
X3122444Y-9642770D01*
X3122444Y-9642770D02*
X3122444Y-9690389D01*
X3122444Y-9690389D02*
X3112920Y-9709436D01*
X3112920Y-9709436D02*
X3103396Y-9718960D01*
X3103396Y-9718960D02*
X3084348Y-9728484D01*
X3084348Y-9728484D02*
X3027206Y-9728484D01*
X3027206Y-9728484D02*
X3008158Y-9718960D01*
X3008158Y-9718960D02*
X2998634Y-9709436D01*
X3198634Y-9528484D02*
X3198634Y-9566579D01*
X3274825Y-9528484D02*
X3274825Y-9566579D01*
X3570063Y-9804674D02*
X3560539Y-9795150D01*
X3560539Y-9795150D02*
X3541491Y-9766579D01*
X3541491Y-9766579D02*
X3531968Y-9747531D01*
X3531968Y-9747531D02*
X3522444Y-9718960D01*
X3522444Y-9718960D02*
X3512920Y-9671341D01*
X3512920Y-9671341D02*
X3512920Y-9633246D01*
X3512920Y-9633246D02*
X3522444Y-9585627D01*
X3522444Y-9585627D02*
X3531968Y-9557055D01*
X3531968Y-9557055D02*
X3541491Y-9538008D01*
X3541491Y-9538008D02*
X3560539Y-9509436D01*
X3560539Y-9509436D02*
X3570063Y-9499912D01*
X3636729Y-9547531D02*
X3646253Y-9538008D01*
X3646253Y-9538008D02*
X3665301Y-9528484D01*
X3665301Y-9528484D02*
X3712920Y-9528484D01*
X3712920Y-9528484D02*
X3731968Y-9538008D01*
X3731968Y-9538008D02*
X3741491Y-9547531D01*
X3741491Y-9547531D02*
X3751015Y-9566579D01*
X3751015Y-9566579D02*
X3751015Y-9585627D01*
X3751015Y-9585627D02*
X3741491Y-9614198D01*
X3741491Y-9614198D02*
X3627206Y-9728484D01*
X3627206Y-9728484D02*
X3751015Y-9728484D01*
X3989110Y-9728484D02*
X3989110Y-9528484D01*
X4074825Y-9728484D02*
X4074825Y-9623722D01*
X4074825Y-9623722D02*
X4065301Y-9604674D01*
X4065301Y-9604674D02*
X4046253Y-9595150D01*
X4046253Y-9595150D02*
X4017682Y-9595150D01*
X4017682Y-9595150D02*
X3998634Y-9604674D01*
X3998634Y-9604674D02*
X3989110Y-9614198D01*
X4198634Y-9728484D02*
X4179587Y-9718960D01*
X4179587Y-9718960D02*
X4170063Y-9709436D01*
X4170063Y-9709436D02*
X4160539Y-9690389D01*
X4160539Y-9690389D02*
X4160539Y-9633246D01*
X4160539Y-9633246D02*
X4170063Y-9614198D01*
X4170063Y-9614198D02*
X4179587Y-9604674D01*
X4179587Y-9604674D02*
X4198634Y-9595150D01*
X4198634Y-9595150D02*
X4227206Y-9595150D01*
X4227206Y-9595150D02*
X4246253Y-9604674D01*
X4246253Y-9604674D02*
X4255777Y-9614198D01*
X4255777Y-9614198D02*
X4265301Y-9633246D01*
X4265301Y-9633246D02*
X4265301Y-9690389D01*
X4265301Y-9690389D02*
X4255777Y-9709436D01*
X4255777Y-9709436D02*
X4246253Y-9718960D01*
X4246253Y-9718960D02*
X4227206Y-9728484D01*
X4227206Y-9728484D02*
X4198634Y-9728484D01*
X4379587Y-9728484D02*
X4360539Y-9718960D01*
X4360539Y-9718960D02*
X4351015Y-9699912D01*
X4351015Y-9699912D02*
X4351015Y-9528484D01*
X4531968Y-9718960D02*
X4512920Y-9728484D01*
X4512920Y-9728484D02*
X4474825Y-9728484D01*
X4474825Y-9728484D02*
X4455777Y-9718960D01*
X4455777Y-9718960D02*
X4446253Y-9699912D01*
X4446253Y-9699912D02*
X4446253Y-9623722D01*
X4446253Y-9623722D02*
X4455777Y-9604674D01*
X4455777Y-9604674D02*
X4474825Y-9595150D01*
X4474825Y-9595150D02*
X4512920Y-9595150D01*
X4512920Y-9595150D02*
X4531968Y-9604674D01*
X4531968Y-9604674D02*
X4541492Y-9623722D01*
X4541492Y-9623722D02*
X4541492Y-9642770D01*
X4541492Y-9642770D02*
X4446253Y-9661817D01*
X4617682Y-9718960D02*
X4636730Y-9728484D01*
X4636730Y-9728484D02*
X4674825Y-9728484D01*
X4674825Y-9728484D02*
X4693873Y-9718960D01*
X4693873Y-9718960D02*
X4703396Y-9699912D01*
X4703396Y-9699912D02*
X4703396Y-9690389D01*
X4703396Y-9690389D02*
X4693873Y-9671341D01*
X4693873Y-9671341D02*
X4674825Y-9661817D01*
X4674825Y-9661817D02*
X4646253Y-9661817D01*
X4646253Y-9661817D02*
X4627206Y-9652293D01*
X4627206Y-9652293D02*
X4617682Y-9633246D01*
X4617682Y-9633246D02*
X4617682Y-9623722D01*
X4617682Y-9623722D02*
X4627206Y-9604674D01*
X4627206Y-9604674D02*
X4646253Y-9595150D01*
X4646253Y-9595150D02*
X4674825Y-9595150D01*
X4674825Y-9595150D02*
X4693873Y-9604674D01*
X4770063Y-9804674D02*
X4779587Y-9795150D01*
X4779587Y-9795150D02*
X4798634Y-9766579D01*
X4798634Y-9766579D02*
X4808158Y-9747531D01*
X4808158Y-9747531D02*
X4817682Y-9718960D01*
X4817682Y-9718960D02*
X4827206Y-9671341D01*
X4827206Y-9671341D02*
X4827206Y-9633246D01*
X4827206Y-9633246D02*
X4817682Y-9585627D01*
X4817682Y-9585627D02*
X4808158Y-9557055D01*
X4808158Y-9557055D02*
X4798634Y-9538008D01*
X4798634Y-9538008D02*
X4779587Y-9509436D01*
X4779587Y-9509436D02*
X4770063Y-9499912D01*
D13*
X-65000Y-9961000D02*
X-5000Y-9901000D01*
X-65000Y-9841000D01*
X-125000Y-9901000D01*
X-65000Y-9961000D01*
D11*
X360539Y-9992484D02*
X246253Y-9992484D01*
X303396Y-9992484D02*
X303396Y-9792484D01*
X303396Y-9792484D02*
X284348Y-9821055D01*
X284348Y-9821055D02*
X265301Y-9840103D01*
X265301Y-9840103D02*
X246253Y-9849627D01*
X446253Y-9973436D02*
X455777Y-9982960D01*
X455777Y-9982960D02*
X446253Y-9992484D01*
X446253Y-9992484D02*
X436729Y-9982960D01*
X436729Y-9982960D02*
X446253Y-9973436D01*
X446253Y-9973436D02*
X446253Y-9992484D01*
X531967Y-9811531D02*
X541491Y-9802008D01*
X541491Y-9802008D02*
X560539Y-9792484D01*
X560539Y-9792484D02*
X608158Y-9792484D01*
X608158Y-9792484D02*
X627205Y-9802008D01*
X627205Y-9802008D02*
X636729Y-9811531D01*
X636729Y-9811531D02*
X646253Y-9830579D01*
X646253Y-9830579D02*
X646253Y-9849627D01*
X646253Y-9849627D02*
X636729Y-9878198D01*
X636729Y-9878198D02*
X522443Y-9992484D01*
X522443Y-9992484D02*
X646253Y-9992484D01*
X770062Y-9792484D02*
X789110Y-9792484D01*
X789110Y-9792484D02*
X808158Y-9802008D01*
X808158Y-9802008D02*
X817682Y-9811531D01*
X817682Y-9811531D02*
X827205Y-9830579D01*
X827205Y-9830579D02*
X836729Y-9868674D01*
X836729Y-9868674D02*
X836729Y-9916293D01*
X836729Y-9916293D02*
X827205Y-9954389D01*
X827205Y-9954389D02*
X817682Y-9973436D01*
X817682Y-9973436D02*
X808158Y-9982960D01*
X808158Y-9982960D02*
X789110Y-9992484D01*
X789110Y-9992484D02*
X770062Y-9992484D01*
X770062Y-9992484D02*
X751015Y-9982960D01*
X751015Y-9982960D02*
X741491Y-9973436D01*
X741491Y-9973436D02*
X731967Y-9954389D01*
X731967Y-9954389D02*
X722443Y-9916293D01*
X722443Y-9916293D02*
X722443Y-9868674D01*
X722443Y-9868674D02*
X731967Y-9830579D01*
X731967Y-9830579D02*
X741491Y-9811531D01*
X741491Y-9811531D02*
X751015Y-9802008D01*
X751015Y-9802008D02*
X770062Y-9792484D01*
X960539Y-9792484D02*
X979586Y-9792484D01*
X979586Y-9792484D02*
X998634Y-9802008D01*
X998634Y-9802008D02*
X1008158Y-9811531D01*
X1008158Y-9811531D02*
X1017682Y-9830579D01*
X1017682Y-9830579D02*
X1027205Y-9868674D01*
X1027205Y-9868674D02*
X1027205Y-9916293D01*
X1027205Y-9916293D02*
X1017682Y-9954389D01*
X1017682Y-9954389D02*
X1008158Y-9973436D01*
X1008158Y-9973436D02*
X998634Y-9982960D01*
X998634Y-9982960D02*
X979586Y-9992484D01*
X979586Y-9992484D02*
X960539Y-9992484D01*
X960539Y-9992484D02*
X941491Y-9982960D01*
X941491Y-9982960D02*
X931967Y-9973436D01*
X931967Y-9973436D02*
X922443Y-9954389D01*
X922443Y-9954389D02*
X912920Y-9916293D01*
X912920Y-9916293D02*
X912920Y-9868674D01*
X912920Y-9868674D02*
X922443Y-9830579D01*
X922443Y-9830579D02*
X931967Y-9811531D01*
X931967Y-9811531D02*
X941491Y-9802008D01*
X941491Y-9802008D02*
X960539Y-9792484D01*
X1112920Y-9992484D02*
X1112920Y-9859150D01*
X1112920Y-9878198D02*
X1122444Y-9868674D01*
X1122444Y-9868674D02*
X1141491Y-9859150D01*
X1141491Y-9859150D02*
X1170063Y-9859150D01*
X1170063Y-9859150D02*
X1189110Y-9868674D01*
X1189110Y-9868674D02*
X1198634Y-9887722D01*
X1198634Y-9887722D02*
X1198634Y-9992484D01*
X1198634Y-9887722D02*
X1208158Y-9868674D01*
X1208158Y-9868674D02*
X1227205Y-9859150D01*
X1227205Y-9859150D02*
X1255777Y-9859150D01*
X1255777Y-9859150D02*
X1274825Y-9868674D01*
X1274825Y-9868674D02*
X1284348Y-9887722D01*
X1284348Y-9887722D02*
X1284348Y-9992484D01*
X1379586Y-9992484D02*
X1379586Y-9859150D01*
X1379586Y-9878198D02*
X1389110Y-9868674D01*
X1389110Y-9868674D02*
X1408158Y-9859150D01*
X1408158Y-9859150D02*
X1436729Y-9859150D01*
X1436729Y-9859150D02*
X1455777Y-9868674D01*
X1455777Y-9868674D02*
X1465301Y-9887722D01*
X1465301Y-9887722D02*
X1465301Y-9992484D01*
X1465301Y-9887722D02*
X1474824Y-9868674D01*
X1474824Y-9868674D02*
X1493872Y-9859150D01*
X1493872Y-9859150D02*
X1522443Y-9859150D01*
X1522443Y-9859150D02*
X1541491Y-9868674D01*
X1541491Y-9868674D02*
X1551015Y-9887722D01*
X1551015Y-9887722D02*
X1551015Y-9992484D01*
X1941491Y-9782960D02*
X1770063Y-10040103D01*
X2198634Y-9792484D02*
X2217682Y-9792484D01*
X2217682Y-9792484D02*
X2236729Y-9802008D01*
X2236729Y-9802008D02*
X2246253Y-9811531D01*
X2246253Y-9811531D02*
X2255777Y-9830579D01*
X2255777Y-9830579D02*
X2265301Y-9868674D01*
X2265301Y-9868674D02*
X2265301Y-9916293D01*
X2265301Y-9916293D02*
X2255777Y-9954389D01*
X2255777Y-9954389D02*
X2246253Y-9973436D01*
X2246253Y-9973436D02*
X2236729Y-9982960D01*
X2236729Y-9982960D02*
X2217682Y-9992484D01*
X2217682Y-9992484D02*
X2198634Y-9992484D01*
X2198634Y-9992484D02*
X2179587Y-9982960D01*
X2179587Y-9982960D02*
X2170063Y-9973436D01*
X2170063Y-9973436D02*
X2160539Y-9954389D01*
X2160539Y-9954389D02*
X2151015Y-9916293D01*
X2151015Y-9916293D02*
X2151015Y-9868674D01*
X2151015Y-9868674D02*
X2160539Y-9830579D01*
X2160539Y-9830579D02*
X2170063Y-9811531D01*
X2170063Y-9811531D02*
X2179587Y-9802008D01*
X2179587Y-9802008D02*
X2198634Y-9792484D01*
X2351015Y-9973436D02*
X2360539Y-9982960D01*
X2360539Y-9982960D02*
X2351015Y-9992484D01*
X2351015Y-9992484D02*
X2341491Y-9982960D01*
X2341491Y-9982960D02*
X2351015Y-9973436D01*
X2351015Y-9973436D02*
X2351015Y-9992484D01*
X2484348Y-9792484D02*
X2503396Y-9792484D01*
X2503396Y-9792484D02*
X2522444Y-9802008D01*
X2522444Y-9802008D02*
X2531968Y-9811531D01*
X2531968Y-9811531D02*
X2541491Y-9830579D01*
X2541491Y-9830579D02*
X2551015Y-9868674D01*
X2551015Y-9868674D02*
X2551015Y-9916293D01*
X2551015Y-9916293D02*
X2541491Y-9954389D01*
X2541491Y-9954389D02*
X2531968Y-9973436D01*
X2531968Y-9973436D02*
X2522444Y-9982960D01*
X2522444Y-9982960D02*
X2503396Y-9992484D01*
X2503396Y-9992484D02*
X2484348Y-9992484D01*
X2484348Y-9992484D02*
X2465301Y-9982960D01*
X2465301Y-9982960D02*
X2455777Y-9973436D01*
X2455777Y-9973436D02*
X2446253Y-9954389D01*
X2446253Y-9954389D02*
X2436729Y-9916293D01*
X2436729Y-9916293D02*
X2436729Y-9868674D01*
X2436729Y-9868674D02*
X2446253Y-9830579D01*
X2446253Y-9830579D02*
X2455777Y-9811531D01*
X2455777Y-9811531D02*
X2465301Y-9802008D01*
X2465301Y-9802008D02*
X2484348Y-9792484D01*
X2722444Y-9859150D02*
X2722444Y-9992484D01*
X2674825Y-9782960D02*
X2627206Y-9925817D01*
X2627206Y-9925817D02*
X2751015Y-9925817D01*
X2808158Y-9792484D02*
X2941491Y-9792484D01*
X2941491Y-9792484D02*
X2855777Y-9992484D01*
X3008158Y-9811531D02*
X3017682Y-9802008D01*
X3017682Y-9802008D02*
X3036729Y-9792484D01*
X3036729Y-9792484D02*
X3084348Y-9792484D01*
X3084348Y-9792484D02*
X3103396Y-9802008D01*
X3103396Y-9802008D02*
X3112920Y-9811531D01*
X3112920Y-9811531D02*
X3122444Y-9830579D01*
X3122444Y-9830579D02*
X3122444Y-9849627D01*
X3122444Y-9849627D02*
X3112920Y-9878198D01*
X3112920Y-9878198D02*
X2998634Y-9992484D01*
X2998634Y-9992484D02*
X3122444Y-9992484D01*
X3198634Y-9792484D02*
X3198634Y-9830579D01*
X3274825Y-9792484D02*
X3274825Y-9830579D01*
X3570063Y-10068674D02*
X3560539Y-10059150D01*
X3560539Y-10059150D02*
X3541491Y-10030579D01*
X3541491Y-10030579D02*
X3531968Y-10011531D01*
X3531968Y-10011531D02*
X3522444Y-9982960D01*
X3522444Y-9982960D02*
X3512920Y-9935341D01*
X3512920Y-9935341D02*
X3512920Y-9897246D01*
X3512920Y-9897246D02*
X3522444Y-9849627D01*
X3522444Y-9849627D02*
X3531968Y-9821055D01*
X3531968Y-9821055D02*
X3541491Y-9802008D01*
X3541491Y-9802008D02*
X3560539Y-9773436D01*
X3560539Y-9773436D02*
X3570063Y-9763912D01*
X3751015Y-9992484D02*
X3636729Y-9992484D01*
X3693872Y-9992484D02*
X3693872Y-9792484D01*
X3693872Y-9792484D02*
X3674825Y-9821055D01*
X3674825Y-9821055D02*
X3655777Y-9840103D01*
X3655777Y-9840103D02*
X3636729Y-9849627D01*
X3922444Y-9859150D02*
X3922444Y-9992484D01*
X3874825Y-9782960D02*
X3827206Y-9925817D01*
X3827206Y-9925817D02*
X3951015Y-9925817D01*
X4179587Y-9992484D02*
X4179587Y-9792484D01*
X4265301Y-9992484D02*
X4265301Y-9887722D01*
X4265301Y-9887722D02*
X4255777Y-9868674D01*
X4255777Y-9868674D02*
X4236730Y-9859150D01*
X4236730Y-9859150D02*
X4208158Y-9859150D01*
X4208158Y-9859150D02*
X4189110Y-9868674D01*
X4189110Y-9868674D02*
X4179587Y-9878198D01*
X4389111Y-9992484D02*
X4370063Y-9982960D01*
X4370063Y-9982960D02*
X4360539Y-9973436D01*
X4360539Y-9973436D02*
X4351015Y-9954389D01*
X4351015Y-9954389D02*
X4351015Y-9897246D01*
X4351015Y-9897246D02*
X4360539Y-9878198D01*
X4360539Y-9878198D02*
X4370063Y-9868674D01*
X4370063Y-9868674D02*
X4389111Y-9859150D01*
X4389111Y-9859150D02*
X4417682Y-9859150D01*
X4417682Y-9859150D02*
X4436730Y-9868674D01*
X4436730Y-9868674D02*
X4446253Y-9878198D01*
X4446253Y-9878198D02*
X4455777Y-9897246D01*
X4455777Y-9897246D02*
X4455777Y-9954389D01*
X4455777Y-9954389D02*
X4446253Y-9973436D01*
X4446253Y-9973436D02*
X4436730Y-9982960D01*
X4436730Y-9982960D02*
X4417682Y-9992484D01*
X4417682Y-9992484D02*
X4389111Y-9992484D01*
X4570063Y-9992484D02*
X4551015Y-9982960D01*
X4551015Y-9982960D02*
X4541492Y-9963912D01*
X4541492Y-9963912D02*
X4541492Y-9792484D01*
X4722444Y-9982960D02*
X4703396Y-9992484D01*
X4703396Y-9992484D02*
X4665301Y-9992484D01*
X4665301Y-9992484D02*
X4646253Y-9982960D01*
X4646253Y-9982960D02*
X4636730Y-9963912D01*
X4636730Y-9963912D02*
X4636730Y-9887722D01*
X4636730Y-9887722D02*
X4646253Y-9868674D01*
X4646253Y-9868674D02*
X4665301Y-9859150D01*
X4665301Y-9859150D02*
X4703396Y-9859150D01*
X4703396Y-9859150D02*
X4722444Y-9868674D01*
X4722444Y-9868674D02*
X4731968Y-9887722D01*
X4731968Y-9887722D02*
X4731968Y-9906770D01*
X4731968Y-9906770D02*
X4636730Y-9925817D01*
X4808158Y-9982960D02*
X4827206Y-9992484D01*
X4827206Y-9992484D02*
X4865301Y-9992484D01*
X4865301Y-9992484D02*
X4884349Y-9982960D01*
X4884349Y-9982960D02*
X4893873Y-9963912D01*
X4893873Y-9963912D02*
X4893873Y-9954389D01*
X4893873Y-9954389D02*
X4884349Y-9935341D01*
X4884349Y-9935341D02*
X4865301Y-9925817D01*
X4865301Y-9925817D02*
X4836730Y-9925817D01*
X4836730Y-9925817D02*
X4817682Y-9916293D01*
X4817682Y-9916293D02*
X4808158Y-9897246D01*
X4808158Y-9897246D02*
X4808158Y-9887722D01*
X4808158Y-9887722D02*
X4817682Y-9868674D01*
X4817682Y-9868674D02*
X4836730Y-9859150D01*
X4836730Y-9859150D02*
X4865301Y-9859150D01*
X4865301Y-9859150D02*
X4884349Y-9868674D01*
X4960539Y-10068674D02*
X4970063Y-10059150D01*
X4970063Y-10059150D02*
X4989111Y-10030579D01*
X4989111Y-10030579D02*
X4998634Y-10011531D01*
X4998634Y-10011531D02*
X5008158Y-9982960D01*
X5008158Y-9982960D02*
X5017682Y-9935341D01*
X5017682Y-9935341D02*
X5017682Y-9897246D01*
X5017682Y-9897246D02*
X5008158Y-9849627D01*
X5008158Y-9849627D02*
X4998634Y-9821055D01*
X4998634Y-9821055D02*
X4989111Y-9802008D01*
X4989111Y-9802008D02*
X4970063Y-9773436D01*
X4970063Y-9773436D02*
X4960539Y-9763912D01*
D14*
X-135000Y-10100000D02*
X-5000Y-10230000D01*
X-5000Y-10100000D02*
X-135000Y-10230000D01*
X-5000Y-10165000D02*
G75*
G03*
X-135000Y-10165000I-65000J0D01*
G01*
X-135000Y-10165000D02*
G75*
G03*
X-5000Y-10165000I65000J0D01*
G01*
D11*
X360539Y-10256484D02*
X246253Y-10256484D01*
X303396Y-10256484D02*
X303396Y-10056484D01*
X303396Y-10056484D02*
X284348Y-10085055D01*
X284348Y-10085055D02*
X265301Y-10104103D01*
X265301Y-10104103D02*
X246253Y-10113627D01*
X446253Y-10237436D02*
X455777Y-10246960D01*
X455777Y-10246960D02*
X446253Y-10256484D01*
X446253Y-10256484D02*
X436729Y-10246960D01*
X436729Y-10246960D02*
X446253Y-10237436D01*
X446253Y-10237436D02*
X446253Y-10256484D01*
X522443Y-10056484D02*
X646253Y-10056484D01*
X646253Y-10056484D02*
X579586Y-10132674D01*
X579586Y-10132674D02*
X608158Y-10132674D01*
X608158Y-10132674D02*
X627205Y-10142198D01*
X627205Y-10142198D02*
X636729Y-10151722D01*
X636729Y-10151722D02*
X646253Y-10170770D01*
X646253Y-10170770D02*
X646253Y-10218389D01*
X646253Y-10218389D02*
X636729Y-10237436D01*
X636729Y-10237436D02*
X627205Y-10246960D01*
X627205Y-10246960D02*
X608158Y-10256484D01*
X608158Y-10256484D02*
X551015Y-10256484D01*
X551015Y-10256484D02*
X531967Y-10246960D01*
X531967Y-10246960D02*
X522443Y-10237436D01*
X770062Y-10056484D02*
X789110Y-10056484D01*
X789110Y-10056484D02*
X808158Y-10066008D01*
X808158Y-10066008D02*
X817682Y-10075531D01*
X817682Y-10075531D02*
X827205Y-10094579D01*
X827205Y-10094579D02*
X836729Y-10132674D01*
X836729Y-10132674D02*
X836729Y-10180293D01*
X836729Y-10180293D02*
X827205Y-10218389D01*
X827205Y-10218389D02*
X817682Y-10237436D01*
X817682Y-10237436D02*
X808158Y-10246960D01*
X808158Y-10246960D02*
X789110Y-10256484D01*
X789110Y-10256484D02*
X770062Y-10256484D01*
X770062Y-10256484D02*
X751015Y-10246960D01*
X751015Y-10246960D02*
X741491Y-10237436D01*
X741491Y-10237436D02*
X731967Y-10218389D01*
X731967Y-10218389D02*
X722443Y-10180293D01*
X722443Y-10180293D02*
X722443Y-10132674D01*
X722443Y-10132674D02*
X731967Y-10094579D01*
X731967Y-10094579D02*
X741491Y-10075531D01*
X741491Y-10075531D02*
X751015Y-10066008D01*
X751015Y-10066008D02*
X770062Y-10056484D01*
X960539Y-10056484D02*
X979586Y-10056484D01*
X979586Y-10056484D02*
X998634Y-10066008D01*
X998634Y-10066008D02*
X1008158Y-10075531D01*
X1008158Y-10075531D02*
X1017682Y-10094579D01*
X1017682Y-10094579D02*
X1027205Y-10132674D01*
X1027205Y-10132674D02*
X1027205Y-10180293D01*
X1027205Y-10180293D02*
X1017682Y-10218389D01*
X1017682Y-10218389D02*
X1008158Y-10237436D01*
X1008158Y-10237436D02*
X998634Y-10246960D01*
X998634Y-10246960D02*
X979586Y-10256484D01*
X979586Y-10256484D02*
X960539Y-10256484D01*
X960539Y-10256484D02*
X941491Y-10246960D01*
X941491Y-10246960D02*
X931967Y-10237436D01*
X931967Y-10237436D02*
X922443Y-10218389D01*
X922443Y-10218389D02*
X912920Y-10180293D01*
X912920Y-10180293D02*
X912920Y-10132674D01*
X912920Y-10132674D02*
X922443Y-10094579D01*
X922443Y-10094579D02*
X931967Y-10075531D01*
X931967Y-10075531D02*
X941491Y-10066008D01*
X941491Y-10066008D02*
X960539Y-10056484D01*
X1112920Y-10256484D02*
X1112920Y-10123150D01*
X1112920Y-10142198D02*
X1122444Y-10132674D01*
X1122444Y-10132674D02*
X1141491Y-10123150D01*
X1141491Y-10123150D02*
X1170063Y-10123150D01*
X1170063Y-10123150D02*
X1189110Y-10132674D01*
X1189110Y-10132674D02*
X1198634Y-10151722D01*
X1198634Y-10151722D02*
X1198634Y-10256484D01*
X1198634Y-10151722D02*
X1208158Y-10132674D01*
X1208158Y-10132674D02*
X1227205Y-10123150D01*
X1227205Y-10123150D02*
X1255777Y-10123150D01*
X1255777Y-10123150D02*
X1274825Y-10132674D01*
X1274825Y-10132674D02*
X1284348Y-10151722D01*
X1284348Y-10151722D02*
X1284348Y-10256484D01*
X1379586Y-10256484D02*
X1379586Y-10123150D01*
X1379586Y-10142198D02*
X1389110Y-10132674D01*
X1389110Y-10132674D02*
X1408158Y-10123150D01*
X1408158Y-10123150D02*
X1436729Y-10123150D01*
X1436729Y-10123150D02*
X1455777Y-10132674D01*
X1455777Y-10132674D02*
X1465301Y-10151722D01*
X1465301Y-10151722D02*
X1465301Y-10256484D01*
X1465301Y-10151722D02*
X1474824Y-10132674D01*
X1474824Y-10132674D02*
X1493872Y-10123150D01*
X1493872Y-10123150D02*
X1522443Y-10123150D01*
X1522443Y-10123150D02*
X1541491Y-10132674D01*
X1541491Y-10132674D02*
X1551015Y-10151722D01*
X1551015Y-10151722D02*
X1551015Y-10256484D01*
X1941491Y-10046960D02*
X1770063Y-10304103D01*
X2198634Y-10056484D02*
X2217682Y-10056484D01*
X2217682Y-10056484D02*
X2236729Y-10066008D01*
X2236729Y-10066008D02*
X2246253Y-10075531D01*
X2246253Y-10075531D02*
X2255777Y-10094579D01*
X2255777Y-10094579D02*
X2265301Y-10132674D01*
X2265301Y-10132674D02*
X2265301Y-10180293D01*
X2265301Y-10180293D02*
X2255777Y-10218389D01*
X2255777Y-10218389D02*
X2246253Y-10237436D01*
X2246253Y-10237436D02*
X2236729Y-10246960D01*
X2236729Y-10246960D02*
X2217682Y-10256484D01*
X2217682Y-10256484D02*
X2198634Y-10256484D01*
X2198634Y-10256484D02*
X2179587Y-10246960D01*
X2179587Y-10246960D02*
X2170063Y-10237436D01*
X2170063Y-10237436D02*
X2160539Y-10218389D01*
X2160539Y-10218389D02*
X2151015Y-10180293D01*
X2151015Y-10180293D02*
X2151015Y-10132674D01*
X2151015Y-10132674D02*
X2160539Y-10094579D01*
X2160539Y-10094579D02*
X2170063Y-10075531D01*
X2170063Y-10075531D02*
X2179587Y-10066008D01*
X2179587Y-10066008D02*
X2198634Y-10056484D01*
X2351015Y-10237436D02*
X2360539Y-10246960D01*
X2360539Y-10246960D02*
X2351015Y-10256484D01*
X2351015Y-10256484D02*
X2341491Y-10246960D01*
X2341491Y-10246960D02*
X2351015Y-10237436D01*
X2351015Y-10237436D02*
X2351015Y-10256484D01*
X2484348Y-10056484D02*
X2503396Y-10056484D01*
X2503396Y-10056484D02*
X2522444Y-10066008D01*
X2522444Y-10066008D02*
X2531968Y-10075531D01*
X2531968Y-10075531D02*
X2541491Y-10094579D01*
X2541491Y-10094579D02*
X2551015Y-10132674D01*
X2551015Y-10132674D02*
X2551015Y-10180293D01*
X2551015Y-10180293D02*
X2541491Y-10218389D01*
X2541491Y-10218389D02*
X2531968Y-10237436D01*
X2531968Y-10237436D02*
X2522444Y-10246960D01*
X2522444Y-10246960D02*
X2503396Y-10256484D01*
X2503396Y-10256484D02*
X2484348Y-10256484D01*
X2484348Y-10256484D02*
X2465301Y-10246960D01*
X2465301Y-10246960D02*
X2455777Y-10237436D01*
X2455777Y-10237436D02*
X2446253Y-10218389D01*
X2446253Y-10218389D02*
X2436729Y-10180293D01*
X2436729Y-10180293D02*
X2436729Y-10132674D01*
X2436729Y-10132674D02*
X2446253Y-10094579D01*
X2446253Y-10094579D02*
X2455777Y-10075531D01*
X2455777Y-10075531D02*
X2465301Y-10066008D01*
X2465301Y-10066008D02*
X2484348Y-10056484D01*
X2731968Y-10056484D02*
X2636729Y-10056484D01*
X2636729Y-10056484D02*
X2627206Y-10151722D01*
X2627206Y-10151722D02*
X2636729Y-10142198D01*
X2636729Y-10142198D02*
X2655777Y-10132674D01*
X2655777Y-10132674D02*
X2703396Y-10132674D01*
X2703396Y-10132674D02*
X2722444Y-10142198D01*
X2722444Y-10142198D02*
X2731968Y-10151722D01*
X2731968Y-10151722D02*
X2741491Y-10170770D01*
X2741491Y-10170770D02*
X2741491Y-10218389D01*
X2741491Y-10218389D02*
X2731968Y-10237436D01*
X2731968Y-10237436D02*
X2722444Y-10246960D01*
X2722444Y-10246960D02*
X2703396Y-10256484D01*
X2703396Y-10256484D02*
X2655777Y-10256484D01*
X2655777Y-10256484D02*
X2636729Y-10246960D01*
X2636729Y-10246960D02*
X2627206Y-10237436D01*
X2931967Y-10256484D02*
X2817682Y-10256484D01*
X2874825Y-10256484D02*
X2874825Y-10056484D01*
X2874825Y-10056484D02*
X2855777Y-10085055D01*
X2855777Y-10085055D02*
X2836729Y-10104103D01*
X2836729Y-10104103D02*
X2817682Y-10113627D01*
X3008158Y-10075531D02*
X3017682Y-10066008D01*
X3017682Y-10066008D02*
X3036729Y-10056484D01*
X3036729Y-10056484D02*
X3084348Y-10056484D01*
X3084348Y-10056484D02*
X3103396Y-10066008D01*
X3103396Y-10066008D02*
X3112920Y-10075531D01*
X3112920Y-10075531D02*
X3122444Y-10094579D01*
X3122444Y-10094579D02*
X3122444Y-10113627D01*
X3122444Y-10113627D02*
X3112920Y-10142198D01*
X3112920Y-10142198D02*
X2998634Y-10256484D01*
X2998634Y-10256484D02*
X3122444Y-10256484D01*
X3198634Y-10056484D02*
X3198634Y-10094579D01*
X3274825Y-10056484D02*
X3274825Y-10094579D01*
X3570063Y-10332674D02*
X3560539Y-10323150D01*
X3560539Y-10323150D02*
X3541491Y-10294579D01*
X3541491Y-10294579D02*
X3531968Y-10275531D01*
X3531968Y-10275531D02*
X3522444Y-10246960D01*
X3522444Y-10246960D02*
X3512920Y-10199341D01*
X3512920Y-10199341D02*
X3512920Y-10161246D01*
X3512920Y-10161246D02*
X3522444Y-10113627D01*
X3522444Y-10113627D02*
X3531968Y-10085055D01*
X3531968Y-10085055D02*
X3541491Y-10066008D01*
X3541491Y-10066008D02*
X3560539Y-10037436D01*
X3560539Y-10037436D02*
X3570063Y-10027912D01*
X3627206Y-10056484D02*
X3751015Y-10056484D01*
X3751015Y-10056484D02*
X3684348Y-10132674D01*
X3684348Y-10132674D02*
X3712920Y-10132674D01*
X3712920Y-10132674D02*
X3731968Y-10142198D01*
X3731968Y-10142198D02*
X3741491Y-10151722D01*
X3741491Y-10151722D02*
X3751015Y-10170770D01*
X3751015Y-10170770D02*
X3751015Y-10218389D01*
X3751015Y-10218389D02*
X3741491Y-10237436D01*
X3741491Y-10237436D02*
X3731968Y-10246960D01*
X3731968Y-10246960D02*
X3712920Y-10256484D01*
X3712920Y-10256484D02*
X3655777Y-10256484D01*
X3655777Y-10256484D02*
X3636729Y-10246960D01*
X3636729Y-10246960D02*
X3627206Y-10237436D01*
X3989110Y-10256484D02*
X3989110Y-10056484D01*
X4074825Y-10256484D02*
X4074825Y-10151722D01*
X4074825Y-10151722D02*
X4065301Y-10132674D01*
X4065301Y-10132674D02*
X4046253Y-10123150D01*
X4046253Y-10123150D02*
X4017682Y-10123150D01*
X4017682Y-10123150D02*
X3998634Y-10132674D01*
X3998634Y-10132674D02*
X3989110Y-10142198D01*
X4198634Y-10256484D02*
X4179587Y-10246960D01*
X4179587Y-10246960D02*
X4170063Y-10237436D01*
X4170063Y-10237436D02*
X4160539Y-10218389D01*
X4160539Y-10218389D02*
X4160539Y-10161246D01*
X4160539Y-10161246D02*
X4170063Y-10142198D01*
X4170063Y-10142198D02*
X4179587Y-10132674D01*
X4179587Y-10132674D02*
X4198634Y-10123150D01*
X4198634Y-10123150D02*
X4227206Y-10123150D01*
X4227206Y-10123150D02*
X4246253Y-10132674D01*
X4246253Y-10132674D02*
X4255777Y-10142198D01*
X4255777Y-10142198D02*
X4265301Y-10161246D01*
X4265301Y-10161246D02*
X4265301Y-10218389D01*
X4265301Y-10218389D02*
X4255777Y-10237436D01*
X4255777Y-10237436D02*
X4246253Y-10246960D01*
X4246253Y-10246960D02*
X4227206Y-10256484D01*
X4227206Y-10256484D02*
X4198634Y-10256484D01*
X4379587Y-10256484D02*
X4360539Y-10246960D01*
X4360539Y-10246960D02*
X4351015Y-10227912D01*
X4351015Y-10227912D02*
X4351015Y-10056484D01*
X4531968Y-10246960D02*
X4512920Y-10256484D01*
X4512920Y-10256484D02*
X4474825Y-10256484D01*
X4474825Y-10256484D02*
X4455777Y-10246960D01*
X4455777Y-10246960D02*
X4446253Y-10227912D01*
X4446253Y-10227912D02*
X4446253Y-10151722D01*
X4446253Y-10151722D02*
X4455777Y-10132674D01*
X4455777Y-10132674D02*
X4474825Y-10123150D01*
X4474825Y-10123150D02*
X4512920Y-10123150D01*
X4512920Y-10123150D02*
X4531968Y-10132674D01*
X4531968Y-10132674D02*
X4541492Y-10151722D01*
X4541492Y-10151722D02*
X4541492Y-10170770D01*
X4541492Y-10170770D02*
X4446253Y-10189817D01*
X4617682Y-10246960D02*
X4636730Y-10256484D01*
X4636730Y-10256484D02*
X4674825Y-10256484D01*
X4674825Y-10256484D02*
X4693873Y-10246960D01*
X4693873Y-10246960D02*
X4703396Y-10227912D01*
X4703396Y-10227912D02*
X4703396Y-10218389D01*
X4703396Y-10218389D02*
X4693873Y-10199341D01*
X4693873Y-10199341D02*
X4674825Y-10189817D01*
X4674825Y-10189817D02*
X4646253Y-10189817D01*
X4646253Y-10189817D02*
X4627206Y-10180293D01*
X4627206Y-10180293D02*
X4617682Y-10161246D01*
X4617682Y-10161246D02*
X4617682Y-10151722D01*
X4617682Y-10151722D02*
X4627206Y-10132674D01*
X4627206Y-10132674D02*
X4646253Y-10123150D01*
X4646253Y-10123150D02*
X4674825Y-10123150D01*
X4674825Y-10123150D02*
X4693873Y-10132674D01*
X4770063Y-10332674D02*
X4779587Y-10323150D01*
X4779587Y-10323150D02*
X4798634Y-10294579D01*
X4798634Y-10294579D02*
X4808158Y-10275531D01*
X4808158Y-10275531D02*
X4817682Y-10246960D01*
X4817682Y-10246960D02*
X4827206Y-10199341D01*
X4827206Y-10199341D02*
X4827206Y-10161246D01*
X4827206Y-10161246D02*
X4817682Y-10113627D01*
X4817682Y-10113627D02*
X4808158Y-10085055D01*
X4808158Y-10085055D02*
X4798634Y-10066008D01*
X4798634Y-10066008D02*
X4779587Y-10037436D01*
X4779587Y-10037436D02*
X4770063Y-10027912D01*
D15*
X-183000Y-10340000D02*
X-5000Y-10518000D01*
X-5000Y-10340000D02*
X-183000Y-10518000D01*
X-94000Y-10340000D02*
X-94000Y-10518000D01*
X-183000Y-10429000D02*
X-5000Y-10429000D01*
D11*
X360539Y-10520484D02*
X246253Y-10520484D01*
X303396Y-10520484D02*
X303396Y-10320484D01*
X303396Y-10320484D02*
X284348Y-10349055D01*
X284348Y-10349055D02*
X265301Y-10368103D01*
X265301Y-10368103D02*
X246253Y-10377627D01*
X446253Y-10501436D02*
X455777Y-10510960D01*
X455777Y-10510960D02*
X446253Y-10520484D01*
X446253Y-10520484D02*
X436729Y-10510960D01*
X436729Y-10510960D02*
X446253Y-10501436D01*
X446253Y-10501436D02*
X446253Y-10520484D01*
X522443Y-10320484D02*
X655777Y-10320484D01*
X655777Y-10320484D02*
X570063Y-10520484D01*
X760539Y-10406198D02*
X741491Y-10396674D01*
X741491Y-10396674D02*
X731967Y-10387150D01*
X731967Y-10387150D02*
X722443Y-10368103D01*
X722443Y-10368103D02*
X722443Y-10358579D01*
X722443Y-10358579D02*
X731967Y-10339531D01*
X731967Y-10339531D02*
X741491Y-10330008D01*
X741491Y-10330008D02*
X760539Y-10320484D01*
X760539Y-10320484D02*
X798634Y-10320484D01*
X798634Y-10320484D02*
X817682Y-10330008D01*
X817682Y-10330008D02*
X827205Y-10339531D01*
X827205Y-10339531D02*
X836729Y-10358579D01*
X836729Y-10358579D02*
X836729Y-10368103D01*
X836729Y-10368103D02*
X827205Y-10387150D01*
X827205Y-10387150D02*
X817682Y-10396674D01*
X817682Y-10396674D02*
X798634Y-10406198D01*
X798634Y-10406198D02*
X760539Y-10406198D01*
X760539Y-10406198D02*
X741491Y-10415722D01*
X741491Y-10415722D02*
X731967Y-10425246D01*
X731967Y-10425246D02*
X722443Y-10444293D01*
X722443Y-10444293D02*
X722443Y-10482389D01*
X722443Y-10482389D02*
X731967Y-10501436D01*
X731967Y-10501436D02*
X741491Y-10510960D01*
X741491Y-10510960D02*
X760539Y-10520484D01*
X760539Y-10520484D02*
X798634Y-10520484D01*
X798634Y-10520484D02*
X817682Y-10510960D01*
X817682Y-10510960D02*
X827205Y-10501436D01*
X827205Y-10501436D02*
X836729Y-10482389D01*
X836729Y-10482389D02*
X836729Y-10444293D01*
X836729Y-10444293D02*
X827205Y-10425246D01*
X827205Y-10425246D02*
X817682Y-10415722D01*
X817682Y-10415722D02*
X798634Y-10406198D01*
X960539Y-10320484D02*
X979586Y-10320484D01*
X979586Y-10320484D02*
X998634Y-10330008D01*
X998634Y-10330008D02*
X1008158Y-10339531D01*
X1008158Y-10339531D02*
X1017682Y-10358579D01*
X1017682Y-10358579D02*
X1027205Y-10396674D01*
X1027205Y-10396674D02*
X1027205Y-10444293D01*
X1027205Y-10444293D02*
X1017682Y-10482389D01*
X1017682Y-10482389D02*
X1008158Y-10501436D01*
X1008158Y-10501436D02*
X998634Y-10510960D01*
X998634Y-10510960D02*
X979586Y-10520484D01*
X979586Y-10520484D02*
X960539Y-10520484D01*
X960539Y-10520484D02*
X941491Y-10510960D01*
X941491Y-10510960D02*
X931967Y-10501436D01*
X931967Y-10501436D02*
X922443Y-10482389D01*
X922443Y-10482389D02*
X912920Y-10444293D01*
X912920Y-10444293D02*
X912920Y-10396674D01*
X912920Y-10396674D02*
X922443Y-10358579D01*
X922443Y-10358579D02*
X931967Y-10339531D01*
X931967Y-10339531D02*
X941491Y-10330008D01*
X941491Y-10330008D02*
X960539Y-10320484D01*
X1112920Y-10520484D02*
X1112920Y-10387150D01*
X1112920Y-10406198D02*
X1122444Y-10396674D01*
X1122444Y-10396674D02*
X1141491Y-10387150D01*
X1141491Y-10387150D02*
X1170063Y-10387150D01*
X1170063Y-10387150D02*
X1189110Y-10396674D01*
X1189110Y-10396674D02*
X1198634Y-10415722D01*
X1198634Y-10415722D02*
X1198634Y-10520484D01*
X1198634Y-10415722D02*
X1208158Y-10396674D01*
X1208158Y-10396674D02*
X1227205Y-10387150D01*
X1227205Y-10387150D02*
X1255777Y-10387150D01*
X1255777Y-10387150D02*
X1274825Y-10396674D01*
X1274825Y-10396674D02*
X1284348Y-10415722D01*
X1284348Y-10415722D02*
X1284348Y-10520484D01*
X1379586Y-10520484D02*
X1379586Y-10387150D01*
X1379586Y-10406198D02*
X1389110Y-10396674D01*
X1389110Y-10396674D02*
X1408158Y-10387150D01*
X1408158Y-10387150D02*
X1436729Y-10387150D01*
X1436729Y-10387150D02*
X1455777Y-10396674D01*
X1455777Y-10396674D02*
X1465301Y-10415722D01*
X1465301Y-10415722D02*
X1465301Y-10520484D01*
X1465301Y-10415722D02*
X1474824Y-10396674D01*
X1474824Y-10396674D02*
X1493872Y-10387150D01*
X1493872Y-10387150D02*
X1522443Y-10387150D01*
X1522443Y-10387150D02*
X1541491Y-10396674D01*
X1541491Y-10396674D02*
X1551015Y-10415722D01*
X1551015Y-10415722D02*
X1551015Y-10520484D01*
X1941491Y-10310960D02*
X1770063Y-10568103D01*
X2198634Y-10320484D02*
X2217682Y-10320484D01*
X2217682Y-10320484D02*
X2236729Y-10330008D01*
X2236729Y-10330008D02*
X2246253Y-10339531D01*
X2246253Y-10339531D02*
X2255777Y-10358579D01*
X2255777Y-10358579D02*
X2265301Y-10396674D01*
X2265301Y-10396674D02*
X2265301Y-10444293D01*
X2265301Y-10444293D02*
X2255777Y-10482389D01*
X2255777Y-10482389D02*
X2246253Y-10501436D01*
X2246253Y-10501436D02*
X2236729Y-10510960D01*
X2236729Y-10510960D02*
X2217682Y-10520484D01*
X2217682Y-10520484D02*
X2198634Y-10520484D01*
X2198634Y-10520484D02*
X2179587Y-10510960D01*
X2179587Y-10510960D02*
X2170063Y-10501436D01*
X2170063Y-10501436D02*
X2160539Y-10482389D01*
X2160539Y-10482389D02*
X2151015Y-10444293D01*
X2151015Y-10444293D02*
X2151015Y-10396674D01*
X2151015Y-10396674D02*
X2160539Y-10358579D01*
X2160539Y-10358579D02*
X2170063Y-10339531D01*
X2170063Y-10339531D02*
X2179587Y-10330008D01*
X2179587Y-10330008D02*
X2198634Y-10320484D01*
X2351015Y-10501436D02*
X2360539Y-10510960D01*
X2360539Y-10510960D02*
X2351015Y-10520484D01*
X2351015Y-10520484D02*
X2341491Y-10510960D01*
X2341491Y-10510960D02*
X2351015Y-10501436D01*
X2351015Y-10501436D02*
X2351015Y-10520484D01*
X2484348Y-10320484D02*
X2503396Y-10320484D01*
X2503396Y-10320484D02*
X2522444Y-10330008D01*
X2522444Y-10330008D02*
X2531968Y-10339531D01*
X2531968Y-10339531D02*
X2541491Y-10358579D01*
X2541491Y-10358579D02*
X2551015Y-10396674D01*
X2551015Y-10396674D02*
X2551015Y-10444293D01*
X2551015Y-10444293D02*
X2541491Y-10482389D01*
X2541491Y-10482389D02*
X2531968Y-10501436D01*
X2531968Y-10501436D02*
X2522444Y-10510960D01*
X2522444Y-10510960D02*
X2503396Y-10520484D01*
X2503396Y-10520484D02*
X2484348Y-10520484D01*
X2484348Y-10520484D02*
X2465301Y-10510960D01*
X2465301Y-10510960D02*
X2455777Y-10501436D01*
X2455777Y-10501436D02*
X2446253Y-10482389D01*
X2446253Y-10482389D02*
X2436729Y-10444293D01*
X2436729Y-10444293D02*
X2436729Y-10396674D01*
X2436729Y-10396674D02*
X2446253Y-10358579D01*
X2446253Y-10358579D02*
X2455777Y-10339531D01*
X2455777Y-10339531D02*
X2465301Y-10330008D01*
X2465301Y-10330008D02*
X2484348Y-10320484D01*
X2617682Y-10320484D02*
X2751015Y-10320484D01*
X2751015Y-10320484D02*
X2665301Y-10520484D01*
X2865301Y-10320484D02*
X2884348Y-10320484D01*
X2884348Y-10320484D02*
X2903396Y-10330008D01*
X2903396Y-10330008D02*
X2912920Y-10339531D01*
X2912920Y-10339531D02*
X2922444Y-10358579D01*
X2922444Y-10358579D02*
X2931967Y-10396674D01*
X2931967Y-10396674D02*
X2931967Y-10444293D01*
X2931967Y-10444293D02*
X2922444Y-10482389D01*
X2922444Y-10482389D02*
X2912920Y-10501436D01*
X2912920Y-10501436D02*
X2903396Y-10510960D01*
X2903396Y-10510960D02*
X2884348Y-10520484D01*
X2884348Y-10520484D02*
X2865301Y-10520484D01*
X2865301Y-10520484D02*
X2846253Y-10510960D01*
X2846253Y-10510960D02*
X2836729Y-10501436D01*
X2836729Y-10501436D02*
X2827206Y-10482389D01*
X2827206Y-10482389D02*
X2817682Y-10444293D01*
X2817682Y-10444293D02*
X2817682Y-10396674D01*
X2817682Y-10396674D02*
X2827206Y-10358579D01*
X2827206Y-10358579D02*
X2836729Y-10339531D01*
X2836729Y-10339531D02*
X2846253Y-10330008D01*
X2846253Y-10330008D02*
X2865301Y-10320484D01*
X3122444Y-10520484D02*
X3008158Y-10520484D01*
X3065301Y-10520484D02*
X3065301Y-10320484D01*
X3065301Y-10320484D02*
X3046253Y-10349055D01*
X3046253Y-10349055D02*
X3027206Y-10368103D01*
X3027206Y-10368103D02*
X3008158Y-10377627D01*
X3198634Y-10320484D02*
X3198634Y-10358579D01*
X3274825Y-10320484D02*
X3274825Y-10358579D01*
X3570063Y-10596674D02*
X3560539Y-10587150D01*
X3560539Y-10587150D02*
X3541491Y-10558579D01*
X3541491Y-10558579D02*
X3531968Y-10539531D01*
X3531968Y-10539531D02*
X3522444Y-10510960D01*
X3522444Y-10510960D02*
X3512920Y-10463341D01*
X3512920Y-10463341D02*
X3512920Y-10425246D01*
X3512920Y-10425246D02*
X3522444Y-10377627D01*
X3522444Y-10377627D02*
X3531968Y-10349055D01*
X3531968Y-10349055D02*
X3541491Y-10330008D01*
X3541491Y-10330008D02*
X3560539Y-10301436D01*
X3560539Y-10301436D02*
X3570063Y-10291912D01*
X3731968Y-10387150D02*
X3731968Y-10520484D01*
X3684348Y-10310960D02*
X3636729Y-10453817D01*
X3636729Y-10453817D02*
X3760539Y-10453817D01*
X3989110Y-10520484D02*
X3989110Y-10320484D01*
X4074825Y-10520484D02*
X4074825Y-10415722D01*
X4074825Y-10415722D02*
X4065301Y-10396674D01*
X4065301Y-10396674D02*
X4046253Y-10387150D01*
X4046253Y-10387150D02*
X4017682Y-10387150D01*
X4017682Y-10387150D02*
X3998634Y-10396674D01*
X3998634Y-10396674D02*
X3989110Y-10406198D01*
X4198634Y-10520484D02*
X4179587Y-10510960D01*
X4179587Y-10510960D02*
X4170063Y-10501436D01*
X4170063Y-10501436D02*
X4160539Y-10482389D01*
X4160539Y-10482389D02*
X4160539Y-10425246D01*
X4160539Y-10425246D02*
X4170063Y-10406198D01*
X4170063Y-10406198D02*
X4179587Y-10396674D01*
X4179587Y-10396674D02*
X4198634Y-10387150D01*
X4198634Y-10387150D02*
X4227206Y-10387150D01*
X4227206Y-10387150D02*
X4246253Y-10396674D01*
X4246253Y-10396674D02*
X4255777Y-10406198D01*
X4255777Y-10406198D02*
X4265301Y-10425246D01*
X4265301Y-10425246D02*
X4265301Y-10482389D01*
X4265301Y-10482389D02*
X4255777Y-10501436D01*
X4255777Y-10501436D02*
X4246253Y-10510960D01*
X4246253Y-10510960D02*
X4227206Y-10520484D01*
X4227206Y-10520484D02*
X4198634Y-10520484D01*
X4379587Y-10520484D02*
X4360539Y-10510960D01*
X4360539Y-10510960D02*
X4351015Y-10491912D01*
X4351015Y-10491912D02*
X4351015Y-10320484D01*
X4531968Y-10510960D02*
X4512920Y-10520484D01*
X4512920Y-10520484D02*
X4474825Y-10520484D01*
X4474825Y-10520484D02*
X4455777Y-10510960D01*
X4455777Y-10510960D02*
X4446253Y-10491912D01*
X4446253Y-10491912D02*
X4446253Y-10415722D01*
X4446253Y-10415722D02*
X4455777Y-10396674D01*
X4455777Y-10396674D02*
X4474825Y-10387150D01*
X4474825Y-10387150D02*
X4512920Y-10387150D01*
X4512920Y-10387150D02*
X4531968Y-10396674D01*
X4531968Y-10396674D02*
X4541492Y-10415722D01*
X4541492Y-10415722D02*
X4541492Y-10434770D01*
X4541492Y-10434770D02*
X4446253Y-10453817D01*
X4617682Y-10510960D02*
X4636730Y-10520484D01*
X4636730Y-10520484D02*
X4674825Y-10520484D01*
X4674825Y-10520484D02*
X4693873Y-10510960D01*
X4693873Y-10510960D02*
X4703396Y-10491912D01*
X4703396Y-10491912D02*
X4703396Y-10482389D01*
X4703396Y-10482389D02*
X4693873Y-10463341D01*
X4693873Y-10463341D02*
X4674825Y-10453817D01*
X4674825Y-10453817D02*
X4646253Y-10453817D01*
X4646253Y-10453817D02*
X4627206Y-10444293D01*
X4627206Y-10444293D02*
X4617682Y-10425246D01*
X4617682Y-10425246D02*
X4617682Y-10415722D01*
X4617682Y-10415722D02*
X4627206Y-10396674D01*
X4627206Y-10396674D02*
X4646253Y-10387150D01*
X4646253Y-10387150D02*
X4674825Y-10387150D01*
X4674825Y-10387150D02*
X4693873Y-10396674D01*
X4770063Y-10596674D02*
X4779587Y-10587150D01*
X4779587Y-10587150D02*
X4798634Y-10558579D01*
X4798634Y-10558579D02*
X4808158Y-10539531D01*
X4808158Y-10539531D02*
X4817682Y-10510960D01*
X4817682Y-10510960D02*
X4827206Y-10463341D01*
X4827206Y-10463341D02*
X4827206Y-10425246D01*
X4827206Y-10425246D02*
X4817682Y-10377627D01*
X4817682Y-10377627D02*
X4808158Y-10349055D01*
X4808158Y-10349055D02*
X4798634Y-10330008D01*
X4798634Y-10330008D02*
X4779587Y-10301436D01*
X4779587Y-10301436D02*
X4770063Y-10291912D01*
M02*
