M48
; DRILL file {KiCad 7.0.11+dfsg-1build4} date Fri Oct  2 04:18:51 2026
; FORMAT={-:-/ absolute / metric / decimal}
; #@! TF.CreationDate,2026-10-02T04:18:51+00:00
; #@! TF.GenerationSoftware,Kicad,Pcbnew,7.0.11+dfsg-1build4
; #@! TF.FileFunction,Plated,1,2,PTH
FMAT,2
METRIC
; #@! TA.AperFunction,Plated,PTH,ViaDrill
T1C0.400
; #@! TA.AperFunction,Plated,PTH,ComponentDrill
T2C0.800
; #@! TA.AperFunction,Plated,PTH,ComponentDrill
T3C1.000
; #@! TA.AperFunction,Plated,PTH,ComponentDrill
T4C1.100
; #@! TA.AperFunction,Plated,PTH,ComponentDrill
T5C1.200
; #@! TA.AperFunction,Plated,PTH,ComponentDrill
T6C1.300
; #@! TA.AperFunction,Plated,PTH,ComponentDrill
T7C1.780
%
G90
G05
T1
X54.25Y-30.5
X56.0Y-18.75
X56.75Y-47.0
X58.5Y-29.25
T2
X14.0Y-61.0
X14.0Y-68.0
X15.38Y-64.5
X15.38Y-71.5
X17.0Y-29.5
X17.0Y-32.04
X17.0Y-36.5
X17.0Y-39.04
X17.0Y-43.5
X17.0Y-46.04
X17.0Y-50.5
X17.0Y-53.04
X23.0Y-64.5
X23.0Y-71.5
X24.16Y-61.0
X24.16Y-68.0
X24.62Y-29.5
X24.62Y-32.04
X24.62Y-36.5
X24.62Y-39.04
X24.62Y-43.5
X24.62Y-46.04
X24.62Y-50.5
X24.62Y-53.04
X27.0Y-24.5
X28.0Y-32.04
X28.0Y-39.04
X28.0Y-46.04
X28.0Y-53.04
X28.0Y-61.0
X28.0Y-63.54
X28.0Y-68.0
X28.0Y-70.54
X34.0Y-7.5
X35.62Y-61.0
X35.62Y-63.54
X35.62Y-68.0
X35.62Y-70.54
X37.16Y-24.5
X37.5Y-7.5
X38.16Y-32.04
X38.16Y-39.04
X38.16Y-46.04
X38.16Y-53.04
X42.0Y-52.84
X42.0Y-63.0
X44.0Y-26.84
X44.0Y-37.0
X46.0Y-59.84
X46.0Y-70.0
X49.5Y-28.5
X49.5Y-31.0
X54.5Y-28.38
X54.5Y-36.0
X55.0Y-15.0
X57.0Y-53.5
X57.0Y-56.0
X57.5Y-15.0
T3
X44.5Y-9.0
X47.04Y-9.0
X49.58Y-9.0
X62.0Y-8.0
X62.0Y-10.54
X62.0Y-13.08
X62.0Y-15.62
X62.0Y-18.16
X62.0Y-20.7
X62.0Y-23.24
X62.0Y-25.78
X62.0Y-28.32
X62.0Y-30.86
X62.0Y-33.4
X62.0Y-35.94
X62.0Y-38.48
X62.0Y-41.02
X62.0Y-43.56
X62.0Y-46.1
X62.0Y-48.64
X62.0Y-51.18
X62.0Y-53.72
X87.4Y-8.0
X87.4Y-10.54
X87.4Y-13.08
X87.4Y-15.62
X87.4Y-18.16
X87.4Y-20.7
X87.4Y-23.24
X87.4Y-25.78
X87.4Y-28.32
X87.4Y-30.86
X87.4Y-33.4
X87.4Y-35.94
X87.4Y-38.48
X87.4Y-41.02
X87.4Y-43.56
X87.4Y-46.1
X87.4Y-48.64
X87.4Y-51.18
X87.4Y-53.72
X95.0Y-20.0
X95.0Y-22.54
X95.0Y-25.08
X95.0Y-27.62
T4
X27.84Y-15.5
X38.0Y-15.5
T5
X5.5Y-29.0
X5.5Y-32.5
X5.5Y-36.0
X5.5Y-39.5
X5.5Y-43.0
X5.5Y-46.5
X5.5Y-50.0
X5.5Y-53.5
X5.5Y-61.0
X5.5Y-64.5
X5.5Y-68.0
X5.5Y-71.5
X41.0Y-21.5
X53.7Y-21.5
T6
X6.5Y-11.0
X6.5Y-16.08
X6.5Y-21.16
T7
X17.0Y-6.0
X17.0Y-9.4
X26.92Y-6.0
X26.92Y-9.4
M30
